<svg width="512" height="512" xmlns="http://www.w3.org/2000/svg">
  <g>
    <title>Rocket Music</title>
    <rect fill="none" id="canvas_background" height="402" width="582" y="-1" x="-1"/>
  </g>
  <g>
    <title>Layer 1</title>
    <path fill="#7159c1" id="svg_3" d="m184.3,261l-143.4,0c-2.8,0 -5,-2.2 -5,-5c0,-113.2 92.1,-205.3 205.3,-205.3c2.8,0 5,2.2 5,5l0,143.4c0,2.8 -2.2,5 -5,5c-28.6,0 -51.9,23.3 -51.9,51.9c0,2.8 -2.2,5 -5,5zm-138.3,-10l133.5,0c2.4,-30.1 26.5,-54.2 56.7,-56.7l0,-133.5c-103.8,2.6 -187.6,86.5 -190.2,190.2z" class="st1"/>
    <path fill="#7159c1" id="svg_5" d="m241.2,317.9c-34.1,0 -61.9,-27.8 -61.9,-61.9c0,-34.1 27.8,-61.9 61.9,-61.9c34.1,0 61.9,27.8 61.9,61.9c-0.1,34.1 -27.8,61.9 -61.9,61.9zm0,-113.8c-28.6,0 -51.9,23.3 -51.9,51.9c0,28.6 23.3,51.9 51.9,51.9c28.6,0 51.9,-23.3 51.9,-51.9c-0.1,-28.6 -23.3,-51.9 -51.9,-51.9z" class="st1"/>
    <path fill="#7159c1" id="svg_7" d="m241.2,461.3c-113.2,0 -205.3,-92.1 -205.3,-205.3c0,-2.8 2.2,-5 5,-5l143.4,0c2.8,0 5,2.2 5,5c0,28.6 23.3,51.9 51.9,51.9c28.6,0 51.9,-23.3 51.9,-51.9c0,-28.6 -23.3,-51.9 -51.9,-51.9c-2.8,0 -5,-2.2 -5,-5l0,-143.4c0,-2.8 2.2,-5 5,-5c57.9,0 113.4,24.6 152.2,67.6c0.8,0.9 1.3,2.1 1.3,3.4l0,18.7c0,7.6 6.2,13.7 13.7,13.7l8.1,0c1.9,0 3.6,1.1 4.5,2.8c0,0 0,0.1 0.1,0.1c0.3,0.7 0.5,1.4 0.5,2.2l0,157.7c0,1.8 -1,3.5 -2.6,4.4l-114.8,63.3c-1.6,0.9 -3.6,0.8 -5.2,-0.2c-4.1,-2.7 -8.9,-4.1 -13.8,-4.1c-13.9,0 -25.2,11.3 -25.2,25.2s11.3,25.2 25.2,25.2c13.9,0 25.1,-11.3 25.1,-25.2c0,-0.2 0,-0.4 0,-0.6c-0.2,-2 0.8,-3.8 2.6,-4.8l104.4,-57.6c1.9,-1.1 4.3,-0.7 5.9,0.8c1.6,1.5 2,3.9 1,5.9c-1,2 -2.1,4 -3.2,6.1c-36.3,65.3 -105.1,106 -179.8,106zm-195.2,-200.3c2.7,105.4 89.2,190.3 195.2,190.3c67.4,0 129.8,-34.8 165.5,-91.5l-86.4,47.7c-1,18.5 -16.4,33.2 -35.1,33.2c-19.4,0 -35.2,-15.8 -35.2,-35.2s15.8,-35.2 35.2,-35.2c5.9,0 11.6,1.4 16.7,4.2l109.6,-60.5l0,-149.9l-3.1,0c-13.1,0 -23.7,-10.6 -23.7,-23.7l0,-16.8c-35.8,-38.8 -85.9,-61.4 -138.5,-62.8l0,133.5c31.8,2.6 56.8,29.3 56.8,61.7c0,34.1 -27.8,61.9 -61.9,61.9c-32.4,0 -59.1,-25.1 -61.7,-56.9l-133.4,0z" class="st1"/>
    <path fill="#7159c1" id="svg_9" d="m238.1,437.3c0,0 0,0 0,0c-43.5,-0.7 -85.2,-17.1 -117.7,-46.1c-32.2,-28.8 -53.1,-68 -58.9,-110.5c-0.4,-2.7 1.5,-5.3 4.3,-5.6c2.8,-0.4 5.3,1.5 5.6,4.3c11.3,82.9 83,146.5 166.8,147.9c2.8,0 5,2.3 4.9,5.1c0,2.7 -2.2,4.9 -5,4.9z" class="st1"/>
    <path fill="#7159c1" id="svg_11" d="m184.3,261l-143.4,0c-2.8,0 -5,-2.2 -5,-5c0,-113.2 92.1,-205.3 205.3,-205.3c2.8,0 5,2.2 5,5l0,143.4c0,2.8 -2.2,5 -5,5c-28.6,0 -51.9,23.3 -51.9,51.9c0,2.8 -2.2,5 -5,5zm-138.3,-10l133.5,0c2.4,-30.1 26.5,-54.2 56.7,-56.7l0,-133.5c-103.8,2.6 -187.6,86.5 -190.2,190.2z" class="st0"/>
    <path fill="#7159c1" id="svg_13" d="m285.2,440.6c-19.4,0 -35.2,-15.8 -35.2,-35.2s15.8,-35.2 35.2,-35.2c5.9,0 11.6,1.4 16.7,4.2l109.6,-60.4l0,-149.9l-3.1,0c-13.1,0 -23.7,-10.6 -23.7,-23.7l0,-65.9c0,-13.1 10.6,-23.7 23.7,-23.7l43.9,0c13.1,0 23.7,10.6 23.7,23.7l0,65.9c0,13.1 -10.6,23.7 -23.7,23.7l-3.1,0l0,169.1c0,1.8 -1,3.5 -2.6,4.4l-126.4,69.8c-1,18.5 -16.3,33.2 -35,33.2zm0,-60.3c-13.9,0 -25.2,11.3 -25.2,25.2c0,13.9 11.3,25.2 25.2,25.2c13.9,0 25.1,-11.3 25.1,-25.2c0,-0.2 0,-0.4 0,-0.6c-0.2,-2 0.8,-3.8 2.6,-4.8l126.4,-69.7l0,-171.3c0,-2.8 2.2,-5 5,-5l8.1,0c7.6,0 13.7,-6.2 13.7,-13.7l0,-65.9c0,-7.6 -6.2,-13.7 -13.7,-13.7l-43.9,0c-7.6,0 -13.7,6.2 -13.7,13.7l0,65.9c0,7.6 6.2,13.7 13.7,13.7l8.1,0c2.8,0 5,2.2 5,5l0,157.8c0,1.8 -1,3.5 -2.6,4.4l-114.8,63.3c-1.6,0.9 -3.6,0.8 -5.2,-0.2c-4.1,-2.7 -8.9,-4.1 -13.8,-4.1z" class="st0"/>
  </g>
</svg>
