<svg xmlns="http://www.w3.org/2000/svg" width="4317" height="530.891" viewBox="0 0 4317 530.891"><defs><style>.a{fill:#111014;}.b{fill:#1c1b22;}.c{fill:#15141a;}.d{fill:#19181f;}</style></defs><g transform="translate(11107.651 -3610)"><g transform="translate(-9945 3086.193)"><g transform="translate(1241.934 636.753)"><path class="a" d="M368.514,815.787l29.961-65.8H423.54s1.205,32.418,7.72,48.339,11.51,9.987,18.331,17.458,17.64,39.1,17.64,39.1l-90.4-10.176L362.47,829.287Z" transform="translate(-344.548 -749.729)"/><path class="b" d="M360.018,842.351h0l43.887,7.374s-34.443-8.53-43.887-33.679,6.112-66.917,6.112-66.917h-9.076l-29.908,66.917L303.18,866.151l32.282-20.837Z" transform="translate(-303.18 -749.128)"/></g><g transform="translate(627.211 585.778)"><path class="a" d="M147.14,737.493l24.167-88.364,24.581-15.194,23.863-66.2h14.158s8.118,30.446,10.869,52.858-2.894,34.559,1.122,47.961,14.818,15.937,18.343,31.684,2.295,37.26,2.295,37.26Z" transform="translate(-145.876 -567.73)"/><path class="b" d="M191.785,626.815c-13.186,22.462-24.433,16.867-31.741,35.617s-15.931,76.277-15.931,76.277h34.966c-1.039-7.113-7.4-44.978,1.25-68.806s11.3-11.676,20.938-36.081,19.742-66.092,19.742-66.092h-3.851S204.971,604.352,191.785,626.815Z" transform="translate(-144.113 -567.73)"/></g><g transform="translate(275.349 523.807)"><path class="a" d="M1481.653,290.084c-57.1,0-92.318,67.291-135.47,66.58-41.246-.679-46.468,0-94.835,0-99.112,0-82.52,2.975-119.943,16.287-25.332,9.009-55.562,5.88-76.488-7.941h0c-5.431-3.579-23.677-10.741-46.919-10.741s-37.193,7.252-70.272,29.841c-28.406,19.4-65.769,30.184-104.586,30.184H588.593c-22.955,0-45.171-5.91-62.777-16.694h0c-33.038-20.213-74.664-31.282-117.683-31.282H378.027c-23.938,0-46.114-9.219-58.411-24.289l-65.451-78.137c-18.774-23-80.642-21.383-94.179-29.489s-44.858-62.52-83.531-62.52h-34.8V702.775h1440Z" transform="translate(-41.653 -171.885)"/></g><path class="c" d="M661,204.679q14.706,1.076,29.768,1.086H0V0H120.552c58.967,0,70.5,80.2,125.142,80.2S355.056,79.6,355.056,79.6s28.325-2.045,47.5,5.818S439.9,114.576,439.9,114.576c34.181,31.585,80.795,58.118,134.783,74.278,42.853-12.814,100.893-33.251,142.552-59.782,57.22-36.439,84.391-91.685,160.037-91.685,68.964,0,562.722,2.15,562.722,2.15V197.6c-6.328,7.2-147.214,9.125-323.788,9.125C970.224,206.729,799.823,205.413,661,204.679Z" transform="translate(275.349 814.323)"/><g transform="translate(275.349 950.671)"><path class="d" d="M1486.49,358.019s-56.017,18.987-137.281,22.346-187.777,0-187.777,0c-32.251,0-89.354-31.1-152.734-31.1s-71.764,11.925-132.184,12.716-64.677-11.126-124.14-9.894c-55.834,1.157-101.585,14.841-190.3,14.841H409.132a170.14,170.14,0,0,1-47.562-6.555L326.4,350.038a215.4,215.4,0,0,0-60.12-8.278H46.49V443.77h1440Z" transform="translate(-46.49 -341.759)"/></g></g><g transform="translate(-11107.651 3610)"><path class="a" d="M41.653,290.084c57.1,0,92.318,67.291,135.47,66.58,41.246-.679,46.468,0,94.835,0,99.112,0,82.52,2.975,119.943,16.287,25.332,9.009,55.562,5.88,76.488-7.941h0c5.431-3.579,23.677-10.741,46.919-10.741s37.193,7.252,70.272,29.841c28.406,19.4,65.769,30.184,104.586,30.184H934.713c22.955,0,45.171-5.91,62.777-16.694h0c33.038-20.213,74.664-31.282,117.683-31.282h30.107c23.938,0,46.114-9.219,58.411-24.289l65.451-78.137c18.774-23,80.642-21.383,94.179-29.489s44.858-62.52,83.531-62.52h34.8V702.775h-1440Z" transform="translate(-41.653 -171.885)"/><path class="c" d="M661,2.05Q675.7.974,690.763.964H0V206.729H120.552c58.967,0,70.5-80.2,125.142-80.2s109.362.592,109.362.592,28.325,2.045,47.5-5.818S439.9,92.153,439.9,92.153C474.083,60.568,520.7,34.034,574.685,17.875c42.853,12.814,100.893,33.251,142.552,59.782,57.22,36.439,84.391,91.685,160.037,91.685,68.964,0,562.722-2.15,562.722-2.15V9.125C1433.669,1.923,1292.782,0,1116.209,0,970.224,0,799.823,1.316,661,2.05Z" transform="translate(1440 497.245) rotate(180)"/><g transform="translate(0 426.864)"><path class="d" d="M46.49,358.019s56.017,18.987,137.281,22.346,187.777,0,187.777,0c32.251,0,89.354-31.1,152.734-31.1s71.764,11.925,132.184,12.716,64.677-11.126,124.14-9.894c55.834,1.157,101.585,14.841,190.3,14.841h152.947a170.139,170.139,0,0,0,47.562-6.555l35.167-10.337a215.4,215.4,0,0,1,60.12-8.278H1486.49V443.77H46.49Z" transform="translate(-46.49 -341.759)"/></g></g><g transform="translate(-8230.651 3610)"><path class="a" d="M41.653,290.084c57.1,0,92.318,67.291,135.47,66.58,41.246-.679,46.468,0,94.835,0,99.112,0,82.52,2.975,119.943,16.287,25.332,9.009,55.562,5.88,76.488-7.941h0c5.431-3.579,23.677-10.741,46.919-10.741s37.193,7.252,70.272,29.841c28.406,19.4,65.769,30.184,104.586,30.184H934.713c22.955,0,45.171-5.91,62.777-16.694h0c33.038-20.213,74.664-31.282,117.683-31.282h30.107c23.938,0,46.114-9.219,58.411-24.289l65.451-78.137c18.774-23,80.642-21.383,94.179-29.489s44.858-62.52,83.531-62.52h34.8V702.775h-1440Z" transform="translate(-41.653 -171.885)"/><path class="c" d="M661,2.05Q675.7.974,690.763.964H0V206.729H120.552c58.967,0,70.5-80.2,125.142-80.2s109.362.592,109.362.592,28.325,2.045,47.5-5.818S439.9,92.153,439.9,92.153C474.083,60.568,520.7,34.034,574.685,17.875c42.853,12.814,100.893,33.251,142.552,59.782,57.22,36.439,84.391,91.685,160.037,91.685,68.964,0,562.722-2.15,562.722-2.15V9.125C1433.669,1.923,1292.782,0,1116.209,0,970.224,0,799.823,1.316,661,2.05Z" transform="translate(1440 497.245) rotate(180)"/><g transform="translate(0 426.864)"><path class="d" d="M46.49,358.019s56.017,18.987,137.281,22.346,187.777,0,187.777,0c32.251,0,89.354-31.1,152.734-31.1s71.764,11.925,132.184,12.716,64.677-11.126,124.14-9.894c55.834,1.157,101.585,14.841,190.3,14.841h152.947a170.139,170.139,0,0,0,47.562-6.555l35.167-10.337a215.4,215.4,0,0,1,60.12-8.278H1486.49V443.77H46.49Z" transform="translate(-46.49 -341.759)"/></g></g></g></svg>