<svg id="ROCKET_MUSIC" data-name="ROCKET MUSIC" xmlns="http://www.w3.org/2000/svg" xmlns:xlink="http://www.w3.org/1999/xlink" viewBox="0 0 757.79 1184.08"><defs><style>.cls-1{fill:url(#linear-gradient);}.cls-14,.cls-2,.cls-26,.cls-38{opacity:0.3;}.cls-2{fill:url(#linear-gradient-2);}.cls-3{opacity:0.34;fill:url(#linear-gradient-3);}.cls-4{opacity:0.37;fill:url(#linear-gradient-4);}.cls-5{opacity:0.41;fill:url(#linear-gradient-5);}.cls-6{opacity:0.45;fill:url(#linear-gradient-6);}.cls-7{opacity:0.48;fill:url(#linear-gradient-7);}.cls-8{opacity:0.52;fill:url(#linear-gradient-8);}.cls-9{opacity:0.55;fill:url(#linear-gradient-9);}.cls-10{opacity:0.59;fill:url(#linear-gradient-10);}.cls-11{opacity:0.63;fill:url(#linear-gradient-11);}.cls-12{opacity:0.66;fill:url(#linear-gradient-12);}.cls-13,.cls-41{opacity:0.7;}.cls-13{fill:url(#linear-gradient-13);}.cls-14{fill:url(#linear-gradient-14);}.cls-15{opacity:0.35;fill:url(#linear-gradient-15);}.cls-16{opacity:0.39;fill:url(#linear-gradient-16);}.cls-17{opacity:0.44;fill:url(#linear-gradient-17);}.cls-18{opacity:0.48;fill:url(#linear-gradient-18);}.cls-19{opacity:0.53;fill:url(#linear-gradient-19);}.cls-20{opacity:0.57;fill:url(#linear-gradient-20);}.cls-21{opacity:0.62;fill:url(#linear-gradient-21);}.cls-22{opacity:0.66;fill:url(#linear-gradient-22);}.cls-23{opacity:0.71;fill:url(#linear-gradient-23);}.cls-24{opacity:0.75;fill:url(#linear-gradient-24);}.cls-25{opacity:0.8;fill:url(#linear-gradient-25);}.cls-26{fill:url(#linear-gradient-26);}.cls-27{opacity:0.35;fill:url(#linear-gradient-27);}.cls-28{opacity:0.41;fill:url(#linear-gradient-28);}.cls-29{opacity:0.46;fill:url(#linear-gradient-29);}.cls-30{opacity:0.52;fill:url(#linear-gradient-30);}.cls-31{opacity:0.57;fill:url(#linear-gradient-31);}.cls-32{opacity:0.63;fill:url(#linear-gradient-32);}.cls-33{opacity:0.68;fill:url(#linear-gradient-33);}.cls-34{opacity:0.74;fill:url(#linear-gradient-34);}.cls-35{opacity:0.79;fill:url(#linear-gradient-35);}.cls-36{opacity:0.85;fill:url(#linear-gradient-36);}.cls-37{opacity:0.9;fill:url(#linear-gradient-37);}.cls-38{fill:url(#linear-gradient-38);}.cls-39,.cls-53{opacity:0.4;}.cls-39{fill:url(#linear-gradient-39);}.cls-40{opacity:0.5;fill:url(#linear-gradient-40);}.cls-41{fill:url(#linear-gradient-41);}.cls-42{fill:url(#linear-gradient-42);}.cls-43,.cls-53,.cls-54{fill:#fff;}.cls-43{opacity:0.2;}.cls-43,.cls-45{isolation:isolate;}.cls-44{fill:url(#linear-gradient-43);}.cls-45{opacity:0.1;}.cls-46{fill:#eee;}.cls-47{fill:url(#linear-gradient-44);}.cls-48{fill:url(#linear-gradient-45);}.cls-49{fill:url(#linear-gradient-46);}.cls-50{fill:#7159c1;}.cls-51,.cls-52{fill:#6051a8;}.cls-52{opacity:0.15;}.cls-54{opacity:0.6;}</style><linearGradient id="linear-gradient" x1="626.86" y1="764.34" x2="365.9" y2="1150.85" gradientUnits="userSpaceOnUse"><stop offset="0.01" stop-color="#fff"/><stop offset="0.21" stop-color="#f9f5fb"/><stop offset="0.56" stop-color="#e9dbf2"/><stop offset="0.97" stop-color="#d1b4e3"/></linearGradient><linearGradient id="linear-gradient-2" x1="599.09" y1="806.87" x2="403.23" y2="1096.97" xlink:href="#linear-gradient"/><linearGradient id="linear-gradient-3" x1="597.98" y1="810.41" x2="406.2" y2="1094.45" xlink:href="#linear-gradient"/><linearGradient id="linear-gradient-4" x1="596.9" y1="813.87" x2="409.04" y2="1092.11" xlink:href="#linear-gradient"/><linearGradient id="linear-gradient-5" x1="595.87" y1="817.23" x2="411.73" y2="1089.97" xlink:href="#linear-gradient"/><linearGradient id="linear-gradient-6" x1="594.85" y1="820.44" x2="414.15" y2="1088.08" xlink:href="#linear-gradient"/><linearGradient id="linear-gradient-7" x1="593.85" y1="823.57" x2="416.46" y2="1086.3" xlink:href="#linear-gradient"/><linearGradient id="linear-gradient-8" x1="592.2" y1="826.07" x2="417.81" y2="1084.37" xlink:href="#linear-gradient"/><linearGradient id="linear-gradient-9" x1="590.17" y1="828.07" x2="418.38" y2="1082.52" xlink:href="#linear-gradient"/><linearGradient id="linear-gradient-10" x1="587.8" y1="829.56" x2="418.15" y2="1080.84" xlink:href="#linear-gradient"/><linearGradient id="linear-gradient-11" x1="585.45" y1="830.69" x2="417.33" y2="1079.7" xlink:href="#linear-gradient"/><linearGradient id="linear-gradient-12" x1="582.06" y1="830.82" x2="415" y2="1078.25" xlink:href="#linear-gradient"/><linearGradient id="linear-gradient-13" x1="578.28" y1="830.56" x2="412.06" y2="1076.75" xlink:href="#linear-gradient"/><linearGradient id="linear-gradient-14" x1="427.6" y1="776.82" x2="477.98" y2="1238.36" xlink:href="#linear-gradient"/><linearGradient id="linear-gradient-15" x1="428.22" y1="781.71" x2="477.78" y2="1235.8" xlink:href="#linear-gradient"/><linearGradient id="linear-gradient-16" x1="428.82" y1="786.59" x2="477.57" y2="1233.26" xlink:href="#linear-gradient"/><linearGradient id="linear-gradient-17" x1="429.4" y1="791.46" x2="477.35" y2="1230.72" xlink:href="#linear-gradient"/><linearGradient id="linear-gradient-18" x1="429.97" y1="796.32" x2="477.11" y2="1228.2" xlink:href="#linear-gradient"/><linearGradient id="linear-gradient-19" x1="430.51" y1="801.18" x2="476.85" y2="1225.68" xlink:href="#linear-gradient"/><linearGradient id="linear-gradient-20" x1="431.04" y1="806.03" x2="476.57" y2="1223.17" xlink:href="#linear-gradient"/><linearGradient id="linear-gradient-21" x1="431.55" y1="810.88" x2="476.28" y2="1220.67" xlink:href="#linear-gradient"/><linearGradient id="linear-gradient-22" x1="432.04" y1="815.73" x2="475.97" y2="1218.17" xlink:href="#linear-gradient"/><linearGradient id="linear-gradient-23" x1="432.52" y1="820.57" x2="475.65" y2="1215.68" xlink:href="#linear-gradient"/><linearGradient id="linear-gradient-24" x1="432.99" y1="825.4" x2="475.32" y2="1213.2" xlink:href="#linear-gradient"/><linearGradient id="linear-gradient-25" x1="433.43" y1="830.24" x2="474.96" y2="1210.72" xlink:href="#linear-gradient"/><linearGradient id="linear-gradient-26" x1="482.41" y1="992.66" x2="515.25" y2="1294.22" xlink:href="#linear-gradient"/><linearGradient id="linear-gradient-27" x1="481.48" y1="995.91" x2="513.43" y2="1289.35" gradientUnits="userSpaceOnUse"><stop offset="0" stop-color="#fff"/><stop offset="0.01" stop-color="#fff"/><stop offset="0.21" stop-color="#f9f5fb"/><stop offset="0.56" stop-color="#e9dbf2"/><stop offset="0.97" stop-color="#d1b4e3"/></linearGradient><linearGradient id="linear-gradient-28" x1="480.57" y1="998.89" x2="511.68" y2="1284.59" xlink:href="#linear-gradient-27"/><linearGradient id="linear-gradient-29" x1="479.69" y1="1001.64" x2="510" y2="1279.94" xlink:href="#linear-gradient-27"/><linearGradient id="linear-gradient-30" x1="478.88" y1="1004.15" x2="508.42" y2="1275.4" xlink:href="#linear-gradient-27"/><linearGradient id="linear-gradient-31" x1="478.16" y1="1006.43" x2="506.97" y2="1270.95" xlink:href="#linear-gradient-27"/><linearGradient id="linear-gradient-32" x1="477.58" y1="1008.49" x2="505.69" y2="1266.57" xlink:href="#linear-gradient-27"/><linearGradient id="linear-gradient-33" x1="477.23" y1="1010.37" x2="504.66" y2="1262.25" xlink:href="#linear-gradient-27"/><linearGradient id="linear-gradient-34" x1="477.54" y1="1012.06" x2="504.32" y2="1257.91" xlink:href="#linear-gradient-27"/><linearGradient id="linear-gradient-35" x1="478.36" y1="1013.62" x2="504.49" y2="1253.56" xlink:href="#linear-gradient-27"/><linearGradient id="linear-gradient-36" x1="479.97" y1="1015.04" x2="505.47" y2="1249.14" xlink:href="#linear-gradient-27"/><linearGradient id="linear-gradient-37" x1="483.1" y1="1016.2" x2="507.97" y2="1244.6" xlink:href="#linear-gradient-27"/><linearGradient id="linear-gradient-38" x1="477.16" y1="998.31" x2="250.97" y2="1333.33" xlink:href="#linear-gradient"/><linearGradient id="linear-gradient-39" x1="469.88" y1="1001.66" x2="261.42" y2="1310.41" xlink:href="#linear-gradient"/><linearGradient id="linear-gradient-40" x1="467" y1="995.95" x2="270.42" y2="1287.11" xlink:href="#linear-gradient"/><linearGradient id="linear-gradient-41" x1="463.71" y1="1002.16" x2="287.02" y2="1263.85" xlink:href="#linear-gradient"/><linearGradient id="linear-gradient-42" x1="410.01" y1="761.69" x2="303.84" y2="681.44" gradientUnits="userSpaceOnUse"><stop offset="0" stop-color="#5c1ccc"/><stop offset="0.03" stop-color="#6323d0"/><stop offset="0.07" stop-color="#7538da"/><stop offset="0.12" stop-color="#9259ea"/><stop offset="0.14" stop-color="#a56ef4"/><stop offset="0.23" stop-color="#c994ff"/><stop offset="0.28" stop-color="#ae7af0"/><stop offset="0.38" stop-color="#7945d1"/><stop offset="0.54" stop-color="#4916a1"/><stop offset="0.62" stop-color="#4b17a4"/><stop offset="0.69" stop-color="#521aaf"/><stop offset="0.76" stop-color="#5d1ec1"/><stop offset="0.82" stop-color="#6b24d6"/><stop offset="0.94" stop-color="#5b1dbd"/><stop offset="1" stop-color="#531ab0"/></linearGradient><linearGradient id="linear-gradient-43" x1="637.89" y1="780.28" x2="483.94" y2="663.91" xlink:href="#linear-gradient-42"/><linearGradient id="linear-gradient-44" x1="379.13" y1="465.96" x2="494.15" y2="465.96" xlink:href="#linear-gradient-42"/><linearGradient id="linear-gradient-45" x1="515.01" y1="383.09" x2="415.78" y2="308.08" xlink:href="#linear-gradient-42"/><linearGradient id="linear-gradient-46" x1="506.24" y1="788.59" x2="408.86" y2="714.98" xlink:href="#linear-gradient-42"/></defs><title>rocketmusic</title><path id="fire" class="cls-1" d="M537.36,1079c-20.27-41.65-47.49-201.22-47.49-201.22C519,999.73,556.93,1071,563.09,1082.11h97C482,871.66,476.47,662.8,476.47,662.8H447.68s-5.53,208.86-183.59,419.31h291ZM356.5,1033.8S398.84,961,430.6,828c0,0-27.23,159.57-47.5,201.22Zm93.65.21-25.25,9.57s29.39-115.3,35.35-252C460.25,791.6,462.15,989.27,450.15,1034Z" transform="translate(-24.21 -25.92)"/><g id="smoke"><path class="cls-2" d="M658.13,982.7c-2.59,0-5.12.14-7.62.35a27.57,27.57,0,0,0,.71-5.88c0-24.15-31.43-43.72-70.21-43.72-19.52,0-37.17,5-49.9,13-12.4-17.11-40-29-72.1-29-28,0-52.52,9.07-66.58,22.72-11.54-7.33-27.6-11.9-45.39-11.9-31.85,0-58.15,14.61-62.75,33.64-2.93-.24-5.91-.42-9-.42-36.58,0-66.23,18.47-66.23,41.24s29.65,41.24,66.23,41.24c34.14,0,62.24-16.09,65.83-36.76,1.93.11,3.89.19,5.87.19,18.51,0,35.12-5,46.74-12.82,14.26,12.92,38.14,21.4,65.23,21.4,24.32,0,46.05-6.84,60.57-17.59,12,13.45,35,22.56,61.43,22.56a110.46,110.46,0,0,0,20.27-1.86c.76,19.16,25.89,34.55,56.85,34.55,31.43,0,56.91-15.86,56.91-35.44S689.56,982.7,658.13,982.7Z" transform="translate(-24.21 -25.92)"/><path class="cls-3" d="M278.13,961.29c2.8-.12,5.62-.14,8.47-.08,3.84-14.09,20.49-25.74,42.66-29.88a98.14,98.14,0,0,1,19.05-1.63,91.6,91.6,0,0,1,28.25,4.66,87.41,87.41,0,0,1,15.86,7.13,99.92,99.92,0,0,1,14-9.8c13.44-7.87,31.85-12.92,52.57-12.92,22.65,0,42.71,6.05,56.35,15.32a80,80,0,0,1,15.75,13.72,121.08,121.08,0,0,1,11.23-5.51A98.83,98.83,0,0,1,581,934.83c30.13,0,55.18,12,64.2,27.85h0c.24.41.46.86.68,1.34a34.24,34.24,0,0,1,3.3,13.57,30.27,30.27,0,0,1-.5,5.72c2.35,0,4.74,0,7.21.11a125.87,125.87,0,0,1,20.93,3l2,.48c2.16.54,4.22,1.17,6.2,1.84,16.94,5.79,28,16.83,28,28.71,0,10.51-8.77,20.63-22.91,26.52a82.92,82.92,0,0,1-35.1,5.7,91.37,91.37,0,0,1-17.64-3.27,123.37,123.37,0,0,1-14-4.47c-1.27-.5-2.51-1-3.7-1.54a48.93,48.93,0,0,1-13-8.27c-5.07-4.58-8.27-10-9-15.86a105.55,105.55,0,0,1-20.18,1c-2.43-.12-4.8-.35-7.09-.64-6.16-.79-12.26-1.9-18-3.16-4.66-1-9.12-2.14-13.21-3.46A62.87,62.87,0,0,1,516,997a80.8,80.8,0,0,1-18.36,9.19,113.25,113.25,0,0,1-42.52,6.06c-2.94-.13-5.81-.39-8.6-.74-5.37-.69-10.69-1.53-15.81-2.47-4.36-.81-8.59-1.68-12.55-2.69A78.76,78.76,0,0,1,389.76,993c-.68.41-1.38.82-2.1,1.21-1.26.7-2.57,1.36-3.92,2l-1.15.53a128.89,128.89,0,0,1-28.52,9.12,84.2,84.2,0,0,1-10.18,1.23c-1.94.12-3.87.13-5.81.12-2.19,9.05-9.37,17.32-20.11,23-13.21,7-30,9.76-46.62,9.31-33.24-.88-57.85-18.42-56.22-39.2a27.36,27.36,0,0,1,4.62-13.4,32.73,32.73,0,0,1,2.32-3C232.73,971.35,254.16,962.31,278.13,961.29Z" transform="translate(-24.21 -25.92)"/><path class="cls-4" d="M280.93,961.15c2.55-.24,5.21-.44,8-.57,4.06-13.22,20.36-24.32,42.13-28a96,96,0,0,1,18.53-1.34,87.62,87.62,0,0,1,27.37,4.91,117.81,117.81,0,0,1,15.48,6.76c4.21-3.08,9-6.29,14.18-9.45,12.88-7.91,31.25-13.27,52.41-13.27,23.11,0,43.19,6.42,56.11,15.77a143.09,143.09,0,0,1,16,13.28c3.52-1.75,7.33-3.52,11.3-5.31,10.84-4.85,24.25-7.67,38.6-7.67,30.09,0,54.44,12.21,62.56,27.19h0a8.21,8.21,0,0,1,.6,1.32,42.77,42.77,0,0,1,3,13.28,35.29,35.29,0,0,1-.29,5.56c2.2.13,4.46.29,6.81.57,7,.83,14,2.14,20.52,3.5l2,.42c2.18.47,4.21,1,6.16,1.63,17.51,5.34,28.63,16.2,28.63,27.14,0,9.71-9.05,19.87-24.08,25.18-12.1,3.87-24.24,5.23-35,3.82-5.45-.72-11-2.86-16.72-4.61-4.82-1.47-9.56-3-14-4.51-1.27-.44-2.52-.89-3.74-1.35a50.87,50.87,0,0,1-13.34-7.29c-5.29-4.11-8.83-9.1-10.11-14.5a102.08,102.08,0,0,1-20.08.07c-2.42-.25-4.74-.62-6.94-1.06-6-1.18-12.09-2.45-17.9-3.59-4.66-.92-9.15-1.73-13.22-2.67a64.39,64.39,0,0,1-23.45-10.58,81.46,81.46,0,0,1-18.63,8.49,110.65,110.65,0,0,1-42.57,4.43c-2.91-.27-5.74-.69-8.46-1.2-5.26-1-10.59-2-15.73-2.81-4.37-.72-8.61-1.33-12.56-2a78.46,78.46,0,0,1-28.7-11.16c-.71.37-1.42.74-2.15,1.09q-1.94.94-4,1.77l-1.16.47c-8.73,3.43-18.52,7.45-27.88,10.06a66.6,66.6,0,0,1-9.83,1.93c-1.89.23-3.81.32-5.75.41-2.72,8.54-10.21,16.43-21.28,21.42-14.5,6.53-31.33,7.38-46.34,6.49-29.9-1.76-49.5-18.19-46.22-37.16a26.93,26.93,0,0,1,4.87-12,33.61,33.61,0,0,1,2.27-2.74C238.85,971.86,259.12,963.2,280.93,961.15Z" transform="translate(-24.21 -25.92)"/><path class="cls-5" d="M283.72,961c2.31-.36,4.81-.75,7.5-1.07,4.28-12.36,20.23-22.89,41.6-26.2a95.29,95.29,0,0,1,18-1.06,84.39,84.39,0,0,1,26.5,5.16c5.4,2.06,10.53,4.22,15.09,6.41,4.37-2.74,9.28-5.85,14.34-9.11,12.34-7.94,30.65-13.62,52.25-13.62,23.57,0,43.66,6.81,55.87,16.22,5.9,4.56,11.55,9,16.23,12.83,3.58-1.55,7.43-3.25,11.37-5.09,10.7-5,24.16-7.89,38.53-7.89,30,0,53.7,12.39,60.92,26.55h0a5.4,5.4,0,0,1,.51,1.29,57.82,57.82,0,0,1,2.7,13,44,44,0,0,1-.09,5.4c2.05.31,4.18.61,6.4,1,6.67,1.26,13.57,2.75,20.12,4l2,.37c2.19.4,4.2.9,6.12,1.41,18.1,4.87,29.28,15.58,29.28,25.58,0,8.9-9.32,19.11-25.23,23.83-13.32,3.44-25.49,4-35,1.94-5-1.08-10.17-3.94-15.79-5.94-4.73-1.67-9.49-3.19-14-4.55l-3.78-1.15a53.37,53.37,0,0,1-13.66-6.32c-5.51-3.65-9.39-8.19-11.18-13.14a97.19,97.19,0,0,1-20-.83,64.22,64.22,0,0,1-6.8-1.47c-5.83-1.58-11.92-3-17.77-4-4.66-.82-9.16-1.33-13.23-1.89a66,66,0,0,1-23.74-8.18,82.09,82.09,0,0,1-18.92,7.79,107.75,107.75,0,0,1-42.6,2.79,76.73,76.73,0,0,1-8.33-1.65,159.32,159.32,0,0,0-15.65-3.14c-4.37-.64-8.62-1-12.56-1.37a77.45,77.45,0,0,1-29-8.94c-.72.34-1.45.66-2.19,1-1.32.55-2.67,1.07-4.05,1.55l-1.19.42c-8.95,3.07-18.61,7.63-27.23,11a51.74,51.74,0,0,1-9.49,2.61c-1.84.34-3.74.53-5.68.72-3.25,8-11.07,15.49-22.45,19.8-15.82,6-32.69,5-46.07,3.68-26.53-2.63-41.22-17.73-36.21-35.13,1.06-3.68,2.32-7.36,5.12-10.65a31.26,31.26,0,0,1,2.23-2.43C245,972.37,264.1,964.08,283.72,961Z" transform="translate(-24.21 -25.92)"/><path class="cls-6" d="M286.51,960.88c2.08-.48,4.41-1.06,7-1.57,4.5-11.49,20.1-21.45,41.07-24.35a93.7,93.7,0,0,1,17.49-.77,80.42,80.42,0,0,1,25.62,5.41c5.2,2.1,10.2,4.13,14.71,6a157.7,157.7,0,0,0,14.5-8.76c11.79-8,30.05-14,52.09-14,24,0,44.12,7.19,55.63,16.66,5.73,4.72,11.51,9,16.47,12.39,3.65-1.36,7.53-3,11.44-4.89C553.12,942,566.62,939,581,939c30,0,53,12.56,59.28,25.89h0a4.55,4.55,0,0,1,.42,1.27,89.23,89.23,0,0,1,2.4,12.7c.14,1.79.14,3.53.12,5.24,1.89.48,3.9.94,6,1.49,6.38,1.69,13.18,3.35,19.7,4.42.66.11,1.31.22,2,.31,2.2.33,4.19.77,6.08,1.21,18.7,4.37,29.94,14.94,29.94,24,0,8.1-9.6,18.35-26.4,22.48-14.53,3-26.43,1-34.91.07a132.78,132.78,0,0,0-14.88-7.28,120.14,120.14,0,0,0-14-4.59c-1.3-.34-2.58-.66-3.83-1a56.58,56.58,0,0,1-14-5.34c-5.74-3.18-10-7.27-12.26-11.78a92.63,92.63,0,0,1-19.91-1.73,54.27,54.27,0,0,1-6.65-1.89,100,100,0,0,0-17.64-4.46,120,120,0,0,0-13.24-1.1,67.67,67.67,0,0,1-24-5.79,83.85,83.85,0,0,1-19.19,7.1,105.11,105.11,0,0,1-42.65,1.14,65.76,65.76,0,0,1-8.19-2.1,88.26,88.26,0,0,0-15.58-3.47,104.42,104.42,0,0,0-12.55-.72,76,76,0,0,1-29.36-6.7l-2.23.86c-1.35.48-2.72.93-4.12,1.34l-1.2.36c-9.18,2.7-18.69,7.77-26.58,11.95a41.14,41.14,0,0,1-9.15,3.31c-1.79.44-3.67.72-5.61,1-3.78,7.49-12,14.51-23.64,18.19-17.17,5.41-34,2.64-45.78.86-23.14-3.49-35.94-18.6-26.21-33.09a19.51,19.51,0,0,1,5.36-9.28c.69-.71,1.4-1.43,2.19-2.12C251.13,972.88,269.08,964.94,286.51,960.88Z" transform="translate(-24.21 -25.92)"/><path class="cls-7" d="M289.3,960.75c1.84-.61,4-1.37,6.54-2.07,4.72-10.63,20-20,40.54-22.51a91.18,91.18,0,0,1,17-.48,76.66,76.66,0,0,1,24.75,5.66c5,2.13,9.86,4,14.32,5.68a85.11,85.11,0,0,0,14.66-8.41c11.25-8,29.45-14.32,51.93-14.32,24.48,0,44.57,7.61,55.39,17.12a96.75,96.75,0,0,0,16.72,11.93,76.4,76.4,0,0,0,11.5-4.68c10.43-5.26,24-8.3,38.39-8.3,30,0,52.23,12.75,57.65,25.24h0a4.22,4.22,0,0,1,.33,1.25c.64,4.06,1.66,8.21,2.09,12.41.18,1.74.26,3.42.33,5.07,1.74.66,3.62,1.27,5.6,2a104.43,104.43,0,0,0,19.29,4.87c.65.09,1.29.19,1.93.26,2.22.26,4.18.62,6,1,19.31,3.86,30.59,14.32,30.59,22.45,0,7.3-9.87,17.59-27.55,21.13-15.76,2.59-27.57-.63-34.85-1.8a65.92,65.92,0,0,0-14-8.61,72.26,72.26,0,0,0-14-4.64c-1.31-.29-2.6-.54-3.87-.77a60,60,0,0,1-14.28-4.37c-5.95-2.71-10.52-6.35-13.33-10.42a86.52,86.52,0,0,1-19.82-2.62,48.12,48.12,0,0,1-6.5-2.3,65.7,65.7,0,0,0-17.51-4.9,70.2,70.2,0,0,0-13.26-.31,69.33,69.33,0,0,1-24.34-3.39,85.46,85.46,0,0,1-19.46,6.39,102.1,102.1,0,0,1-42.69-.5,59.43,59.43,0,0,1-8.06-2.55,61.24,61.24,0,0,0-15.5-3.8,66.77,66.77,0,0,0-12.55-.07c-9.7.75-20.16-1.1-29.68-4.47-.75.26-1.51.51-2.29.74-1.37.42-2.76.8-4.17,1.13l-1.23.3c-9.41,2.34-18.75,7.87-25.93,12.9a32.7,32.7,0,0,1-8.8,4,56.49,56.49,0,0,1-5.55,1.31c-4.31,7-12.87,13.5-24.81,16.58-18.54,4.79-35.33.29-45.51-2-19.7-4.33-28.36-18.64-16.2-31.06a18.2,18.2,0,0,1,5.61-7.9c.68-.6,1.37-1.23,2.14-1.8C257.3,973.4,274.08,965.78,289.3,960.75Z" transform="translate(-24.21 -25.92)"/><path class="cls-8" d="M292.1,960.61c1.6-.73,3.6-1.67,6-2.56,4.95-9.77,19.84-18.6,40-20.67a89.49,89.49,0,0,1,16.46-.2,72.81,72.81,0,0,1,23.87,5.91,120.56,120.56,0,0,0,13.94,5.32,57.24,57.24,0,0,0,14.81-8.06c10.73-8,28.85-14.66,51.78-14.66,24.94,0,45,8,55.15,17.56a61.31,61.31,0,0,0,17,11.49,53.61,53.61,0,0,0,11.57-4.48c10.3-5.39,23.9-8.5,38.32-8.5,29.9,0,51.5,12.92,56,24.58h0a3.51,3.51,0,0,1,.24,1.23c.37,4,1.28,8,1.79,12.12.21,1.68.37,3.32.54,4.91,1.59.83,3.33,1.6,5.19,2.43a67.5,67.5,0,0,0,18.89,5.34l1.92.2c2.22.19,4.16.48,6,.78,19.93,3.3,31.25,13.69,31.25,20.88,0,6.5-10.15,16.83-28.72,19.78-17,2.16-28.7-2.27-34.79-3.68a43.94,43.94,0,0,0-13-9.94,52.14,52.14,0,0,0-13.95-4.68c-1.32-.24-2.63-.43-3.91-.58a63.75,63.75,0,0,1-14.59-3.39,36.58,36.58,0,0,1-14.42-9.06,81.09,81.09,0,0,1-19.72-3.52,41.2,41.2,0,0,1-6.36-2.72,47.45,47.45,0,0,0-30.64-4.86c-7.94,1.3-16.55.62-24.64-1a87,87,0,0,1-19.74,5.69c-14.46,2.37-29.68,1.64-42.74-2.14a54.28,54.28,0,0,1-7.92-3A46.86,46.86,0,0,0,412.24,987a48.56,48.56,0,0,0-12.56.58c-9.35,1.57-20,.51-30-2.23-.76.22-1.54.43-2.33.62-1.4.35-2.81.65-4.24.92l-1.24.24c-9.65,2-18.84,7.9-25.29,13.84a26.63,26.63,0,0,1-8.46,4.7,53.07,53.07,0,0,1-5.48,1.62c-4.84,6.45-13.78,12.45-26,15-19.92,4.1-36.6-2-45.23-4.77-16.22-5.1-20.8-18.67-6.2-29a17.5,17.5,0,0,1,5.86-6.53c.67-.49,1.35-1,2.1-1.49C263.48,973.92,279.09,966.59,292.1,960.61Z" transform="translate(-24.21 -25.92)"/><path class="cls-9" d="M294.89,960.48a43.92,43.92,0,0,1,5.56-3.06c5.17-8.9,19.71-17.17,39.48-18.83a87.51,87.51,0,0,1,15.94.09,69.06,69.06,0,0,1,23,6.16,70.66,70.66,0,0,0,13.55,4.95,43.07,43.07,0,0,0,15-7.71c10.2-8,28.25-15,51.62-15,25.4,0,45.45,8.45,54.92,18a44.89,44.89,0,0,0,17.19,11,41.44,41.44,0,0,0,11.64-4.27c10.16-5.52,23.81-8.71,38.25-8.71,29.85,0,50.76,13.1,54.37,23.94h0a3.13,3.13,0,0,1,.15,1.2A101.62,101.62,0,0,0,637,980.12c.25,1.62.48,3.2.74,4.74a54.37,54.37,0,0,0,4.8,2.89,48.94,48.94,0,0,0,18.48,5.8c.63.06,1.27.11,1.9.14,2.23.12,4.15.34,5.95.58,20.55,2.71,31.9,13.06,31.9,19.3,0,5.7-10.41,16.08-29.88,18.44-18.18,1.73-29.83-3.91-34.72-5.55a33.45,33.45,0,0,0-12.11-11.28,40.88,40.88,0,0,0-14-4.72c-1.34-.19-2.66-.32-4-.38a69.54,69.54,0,0,1-14.9-2.42,42.3,42.3,0,0,1-15.49-7.7,76.22,76.22,0,0,1-19.63-4.42,37.92,37.92,0,0,1-6.22-3.13,39.28,39.28,0,0,0-17.25-5.77,38.31,38.31,0,0,0-13.27,1.26c-7.67,2.07-16.41,2.25-24.94,1.4a89.79,89.79,0,0,1-20,5c-14.83,1.91-30.15.57-42.78-3.78a51,51,0,0,1-7.79-3.46,37.94,37.94,0,0,0-15.35-4.46A38.48,38.48,0,0,0,396,983.83c-9,2.36-19.86,2.12-30.32,0-.79.18-1.58.35-2.38.51-1.43.28-2.86.51-4.31.7l-1.25.19c-9.89,1.58-19,7.89-24.64,14.79-1.38,1.68-4.2,3.66-8.12,5.39a50.07,50.07,0,0,1-5.41,1.91c-5.37,5.93-14.7,11.39-27.17,13.36-21.3,3.38-37.82-4.33-44.95-7.58-12.67-5.77-13.22-18.71,3.82-27a17.51,17.51,0,0,1,6.1-5.15c.66-.38,1.33-.8,2.05-1.18C269.69,974.47,284.1,967.35,294.89,960.48Z" transform="translate(-24.21 -25.92)"/><path class="cls-10" d="M297.68,960.34a28.28,28.28,0,0,1,5.08-3.56c5.39-8,19.58-15.74,38.95-17a85.45,85.45,0,0,1,15.43.38,65.76,65.76,0,0,1,22.11,6.41,49,49,0,0,0,13.17,4.59,34.94,34.94,0,0,0,15.13-7.37c9.68-8,27.65-15.35,51.46-15.35,25.85,0,45.87,8.89,54.68,18.45a35.49,35.49,0,0,0,17.43,10.6,34.2,34.2,0,0,0,11.71-4.07c10-5.66,23.73-8.91,38.18-8.91,29.8,0,50,13.27,52.73,23.28h0a3.28,3.28,0,0,1,.07,1.18A55.45,55.45,0,0,0,635,980.54c.28,1.57.58,3.1.94,4.58a39.18,39.18,0,0,0,4.39,3.35,37.87,37.87,0,0,0,18.07,6.26q.95.07,1.89.09c2.25,0,4.15.19,5.91.36,21.17,2.1,32.55,12.44,32.55,17.74,0,4.9-10.68,15.32-31,17.09-19.4,1.3-31-5.55-34.66-7.43A28,28,0,0,0,621.87,1010a33.7,33.7,0,0,0-14-4.76,35.75,35.75,0,0,0-4-.19,72.47,72.47,0,0,1-15.21-1.45,49.73,49.73,0,0,1-16.57-6.34,71.1,71.1,0,0,1-19.54-5.31,34.7,34.7,0,0,1-6.08-3.55,32.69,32.69,0,0,0-17.12-6.2,31.77,31.77,0,0,0-13.28,2c-7.41,2.82-16.28,3.89-25.24,3.8a92,92,0,0,1-20.28,4.3c-15.21,1.45-30.62-.52-42.83-5.42a47.67,47.67,0,0,1-7.65-3.91,31.84,31.84,0,0,0-27.82-2.9c-8.71,3.12-19.72,3.72-30.65,2.23-.8.14-1.61.27-2.42.39-1.46.21-2.92.37-4.37.49-.43,0-.85.08-1.28.13-10.12,1.19-19.17,7.85-24,15.73-1.11,1.82-3.81,4.07-7.77,6.08a49,49,0,0,1-5.35,2.22c-5.9,5.41-15.61,10.29-28.34,11.75a67,67,0,0,1-44.67-10.4c-9.12-6.21-5.65-18.74,13.82-25a19.61,19.61,0,0,1,6.35-3.78c.65-.27,1.31-.59,2-.86C275.91,975,289.08,968.06,297.68,960.34Z" transform="translate(-24.21 -25.92)"/><path class="cls-11" d="M300.48,960.21a18.77,18.77,0,0,1,4.59-4.06c5.61-7.17,19.45-14.31,38.42-15.14a84,84,0,0,1,14.91.66,62.31,62.31,0,0,1,21.24,6.67,36.16,36.16,0,0,0,12.78,4.22,29.19,29.19,0,0,0,15.29-7c9.16-8,27.05-15.7,51.3-15.7,26.31,0,46.28,9.34,54.44,18.9a29.49,29.49,0,0,0,17.67,10.15A28.91,28.91,0,0,0,542.9,955c9.89-5.79,23.64-9.12,38.11-9.12,29.76,0,49.29,13.45,51.09,22.63h0a3.42,3.42,0,0,1,0,1.16A37.94,37.94,0,0,0,633,981a41.46,41.46,0,0,0,1.15,4.42,29,29,0,0,0,4,3.81,30.84,30.84,0,0,0,17.66,6.72c.62,0,1.25.05,1.87,0,2.26,0,4.14,0,5.87.15,21.79,1.43,33.21,11.8,33.21,16.17,0,4.1-11,14.56-32.2,15.74-20.61.87-32.1-7.19-34.6-9.3a24.81,24.81,0,0,0-10.26-14,28.65,28.65,0,0,0-18-4.8,77.93,77.93,0,0,1-15.52-.47,59.74,59.74,0,0,1-17.65-5,67.14,67.14,0,0,1-19.44-6.21,32.31,32.31,0,0,1-5.93-4,28.18,28.18,0,0,0-17-6.63,27.26,27.26,0,0,0-13.29,2.83c-7.16,3.55-16.15,5.51-25.53,6.19a94.35,94.35,0,0,1-20.57,3.61c-15.58,1-31.06-1.62-42.86-7.07a45.64,45.64,0,0,1-7.52-4.36,28,28,0,0,0-15.19-5.13,27.62,27.62,0,0,0-12.55,2.55c-8.41,3.87-19.58,5.33-31,4.46-.82.11-1.64.2-2.47.28-1.49.14-3,.22-4.44.27-.43,0-.86,0-1.29.08a28.51,28.51,0,0,0-23.35,16.67c-.86,2-3.43,4.48-7.43,6.78a44.93,44.93,0,0,1-5.28,2.51c-6.43,4.9-16.51,9.19-29.51,10.14-24.06,1.77-40.23-8.55-44.4-13.21-5.67-6.34,2.9-15.24,23.83-22.92a50.79,50.79,0,0,1,6.59-2.4c.65-.16,1.3-.37,2-.55C282.14,975.66,294,968.71,300.48,960.21Z" transform="translate(-24.21 -25.92)"/><path class="cls-12" d="M303.27,960.07a13.9,13.9,0,0,1,4.11-4.55c5.83-6.31,19.32-12.88,37.89-13.3a81.33,81.33,0,0,1,14.39.95A58.62,58.62,0,0,1,380,950.08a28,28,0,0,0,12.4,3.87,25.34,25.34,0,0,0,15.44-6.67c8.67-8,26.46-16,51.15-16,26.77,0,46.68,9.79,54.2,19.34A21.26,21.26,0,0,0,543,956.63c9.76-5.93,23.55-9.34,38-9.34,29.71,0,48.55,13.63,49.45,22h0a4.23,4.23,0,0,1-.11,1.14,28.37,28.37,0,0,0,.59,11,29.35,29.35,0,0,0,1.36,4.26,24.36,24.36,0,0,0,3.59,4.27,25.93,25.93,0,0,0,17.25,7.18c.62,0,1.23,0,1.85,0,2.27-.11,4.13-.12,5.83-.07,22.4.74,33.86,11.18,33.86,14.61s-11.23,13.8-33.36,14.39c-21.82.44-33.23-8.83-34.53-11.17a23.25,23.25,0,0,0-9.34-15.29,25.1,25.1,0,0,0-18-4.65,83,83,0,0,1-15.83.51,71.66,71.66,0,0,1-18.73-3.62,63.37,63.37,0,0,1-19.35-7.11,30.9,30.9,0,0,1-5.79-4.38,24.91,24.91,0,0,0-16.86-7.07,24.42,24.42,0,0,0-13.31,3.61c-7,4.28-16,7.15-25.83,8.59a97.25,97.25,0,0,1-20.84,2.91c-15.95.49-31.5-2.73-42.91-8.71a44.73,44.73,0,0,1-7.38-4.81,24.72,24.72,0,0,0-27.67-2.26c-8.13,4.6-19.43,6.93-31.29,6.7-.83.06-1.67.12-2.51.15-1.52.07-3,.09-4.51.07-.44,0-.87,0-1.3,0a24.88,24.88,0,0,0-22.7,17.62c-.63,2.12-3.07,4.87-7.09,7.46a42.68,42.68,0,0,1-5.22,2.82c-7,4.37-17.4,8.06-30.69,8.53-25.41.9-41.76-10.39-44.12-16-2.6-6.24,9.76-16.81,33.84-20.88,1.89-.32,4-.81,6.84-1,.64-.05,1.28-.14,1.93-.23C288.36,976.34,298.85,969.36,303.27,960.07Z" transform="translate(-24.21 -25.92)"/><path class="cls-13" d="M658.13,1024c-23,0-34.37-10.47-34.48-13.06a22.39,22.39,0,0,0-22.37-21.5,23.16,23.16,0,0,0-4.13.38A87.39,87.39,0,0,1,581,991.33c-21.62,0-38-7.57-44.71-15.07a22.39,22.39,0,0,0-30-3.1c-11.16,8.26-28.82,13.19-47.24,13.19-20.34,0-39.57-6-50.2-15.61a22.41,22.41,0,0,0-27.59-1.94c-8.42,5.7-20.88,9-34.18,9-1.54,0-3.06-.06-4.56-.15-.45,0-.89,0-1.33,0a22.4,22.4,0,0,0-22,18.57c-1.1,6.35-17.1,18.2-43.76,18.2S231.5,1002,231.5,995.5s17.07-18.85,43.84-18.85c2,0,4.29.11,7.09.34.63.06,1.26.08,1.88.08a22.38,22.38,0,0,0,21.75-17.13c1.39-5.76,16.69-16.51,41-16.51,12.81,0,25,3.07,33.37,8.4A22.39,22.39,0,0,0,408,949c8.17-7.93,25.85-16.4,51-16.4,27.22,0,47.06,10.26,54,19.8A22.41,22.41,0,0,0,543,958.22c9.62-6.06,23.47-9.54,38-9.54,29.66,0,47.81,13.81,47.81,21.32h0a8.69,8.69,0,0,1-.19,1.12,22.39,22.39,0,0,0,21.87,27.16c.62,0,1.23,0,1.84-.08,2.28-.19,4.12-.27,5.79-.27,23,0,34.52,10.55,34.52,13S681.14,1024,658.13,1024Z" transform="translate(-24.21 -25.92)"/><path class="cls-14" d="M752,1075.64c0-27.21-35.42-49.27-79.12-49.27-1.06,0-2.08.08-3.12.1,0-.53.13-1,.13-1.59,0-27.21-35.42-49.26-79.12-49.26-2.51,0-5,.09-7.44.23-2.8-12-23.62-21.32-48.92-21.32-27.21,0-49.26,10.78-49.26,24.07,0,11,15.13,20.27,35.78,23.14-5.91,6.9-9.29,14.77-9.29,23.14,0,16.24,12.67,30.59,32.12,39.57-18.87,4.19-35,12-46.21,22-9-5-22.26-8.23-37-8.23-12.1,0-23.16,2.14-31.74,5.68-13.62-26.34-53.27-45.4-100.1-45.4-2.15,0-4.29.06-6.41.13C320.11,1031,315.07,1024,308,1018c16.11-4,27.18-12.08,27.18-21.49,0-13.3-22.06-24.08-49.26-24.08s-49.27,10.78-49.27,24.08a11.15,11.15,0,0,0,.18,1.73c-40.1,2.4-71.46,23.43-71.46,49,0,16.85,13.61,31.69,34.35,40.56-2.86,3.05-4.5,6.43-4.5,10,0,10.26,13.16,19,31.66,22.46,10.79,26.22,47,46.1,91.34,48.84,8.5,7.23,24.43,12.11,42.71,12.11a98.85,98.85,0,0,0,14.05-1c12.13,17.48,40,29.74,72.54,29.74,25,0,47.2-7.28,61.7-18.56a96.26,96.26,0,0,0,17.42,1.58c19.29,0,35.94-5.43,44-13.31,1.75.06,3.46.21,5.24.21,43,0,68.41-17.59,82.35-32.88.91,0,1.82.07,2.74.07,27.21,0,49.27-10.77,49.27-24.07a11.87,11.87,0,0,0-.21-2C730.58,1115.79,752,1103.62,752,1075.64Z" transform="translate(-24.21 -25.92)"/><path class="cls-15" d="M236.74,998.71c.42-5,4.42-9.73,10.36-13.85a63.27,63.27,0,0,1,10.88-6,86,86,0,0,1,27.89-4.39,94.17,94.17,0,0,1,15.55,1.26,49.1,49.1,0,0,1,18.51,8c6.48,4.64,10.85,10.32,11.42,16.25.36,3.74-1.17,7.23-3.9,10.49a36.06,36.06,0,0,1-18.2,11.41c.22.15.43.31.63.47q2.22,1.68,4.18,3.48a40.11,40.11,0,0,1,10.54,14.92c2.13,0,4.27-.06,6.41,0,23.93.46,45.53,5.91,62,14.58A176.24,176.24,0,0,1,413.69,1068c2.37,1.7,4.6,3.42,6.64,5.18a58.76,58.76,0,0,1,10.76,12.25c1.91-.72,3.93-1.38,6.05-2a87.35,87.35,0,0,1,25.77-2.74c3.88.15,7.69.46,11.36.85a126.59,126.59,0,0,1,15.84,2.59,55.17,55.17,0,0,1,9.58,3.22,90.06,90.06,0,0,1,25.5-15c6.55-2.6,13.47-5.1,20.49-7.23-1.59-.93-3.15-1.92-4.68-2.94a82.81,82.81,0,0,1-20.13-18.54,33.18,33.18,0,0,1-6.89-18.13,27.28,27.28,0,0,1,.71-8.13,31.09,31.09,0,0,1,3.78-8.79,60,60,0,0,1,4.38-6.18,81.62,81.62,0,0,1-14.45-4.94c-8.72-3.86-15.6-8.76-18.65-14.11a11.8,11.8,0,0,1-1.54-4.82c.39-6.43,6.36-12.26,15.76-16.19,8.82-3.69,20.21-5.78,32.41-5.54a95.77,95.77,0,0,1,10.71.84c17.39,2.74,31.61,10,35.73,18.48a11.29,11.29,0,0,1,.65,1.69c2.37-.13,4.76-.22,7.19-.23l2.22,0c41.54.69,74.45,21.65,74.93,46.9,0,.51-.07,1-.09,1.53,1,0,1.91,0,2.87.08l.77.09c5.45.62,11,1.58,16.52,2.75,5.68,1.18,11.29,2.49,16.59,4,.88.25,2,.53,2.83.82,25.46,7.59,42.69,23.83,42.69,41.78,0,25.92-19.5,38-40.16,43.36a11,11,0,0,1,.1,1.82,11.82,11.82,0,0,1-1.22,4.67c-5.07,10.15-23.74,18.23-45.32,19.07-.91,0-1.81,0-2.74.06a81.29,81.29,0,0,1-17.57,13.68c-.62.42-1.47.84-2.13,1.23-4.56,2.69-9.69,5.26-15.13,7.8-12.45,5.81-28.3,10.08-48.3,10.43-1.79,0-3.52-.09-5.29-.13a38.1,38.1,0,0,1-9.68,5.82c-.54.24-1.1.46-1.66.68s-1.38.52-2.1.77l-.61.22a123.24,123.24,0,0,1-15.21,4.17,86.34,86.34,0,0,1-15.2,1.59,93.26,93.26,0,0,1-11.89-.55q-2.91-.32-5.69-.81-2.61,1.76-5.47,3.31c-1.06.57-2.16,1.15-3.27,1.71-3.86,2-8,3.84-12.33,5.63A110.49,110.49,0,0,1,447.9,1208c-1.46,0-2.92,0-4.37,0-20.87-.62-39.21-6.42-51.92-15a90.29,90.29,0,0,1-15.09-12.55c-.66-.7-1.28-1.41-1.88-2.12a94.51,94.51,0,0,1-11.65,1c-.76,0-1.53,0-2.3,0-11.16,0-21.17-1.91-28.84-4.85a56.24,56.24,0,0,1-13.55-7.25c-32.62-2-60.37-13.41-76.37-29.24a86.07,86.07,0,0,1-13.7-17.27c-.45-.77-.88-1.56-1.28-2.36a74.67,74.67,0,0,1-7.59-1.85,61.8,61.8,0,0,1-10.27-5.25c-7.25-4.59-12.24-10.18-12.71-16.08-.26-3.33,1.14-6.49,3.58-9.35-14.75-6.41-25.67-15.91-30.16-26.83a29.67,29.67,0,0,1-2.23-12.22c.7-24.07,30.59-44.05,69.24-46.38A8.36,8.36,0,0,1,236.74,998.71Z" transform="translate(-24.21 -25.92)"/><path class="cls-16" d="M236.88,1000.9c.86-4.55,5.2-9.08,10.92-13.28A90.15,90.15,0,0,1,258.09,981a82.64,82.64,0,0,1,27.78-4.52,91.32,91.32,0,0,1,15.58,1.3c5.63,1.55,10.64,4.84,15.1,8.88,5.58,5,9.88,11,11,16.84.71,3.68-.52,7.1-2.8,10.4-3.71,5.4-8.17,10-14.21,11.9l.65.42q2.27,1.5,4.31,3.13a41.28,41.28,0,0,1,11.41,13.55c2.13,0,4.26,0,6.41.07,24.34.86,45.83,7,61.26,16.22,7.18,4.28,14.29,8.66,20.6,12.64,2.42,1.52,4.73,3,6.83,4.5A59.26,59.26,0,0,1,433.4,1087a62.94,62.94,0,0,1,6.08-1.79,84.21,84.21,0,0,1,25.8-1.92c3.84.3,7.65.7,11.32,1,5.7.55,11.08,1.08,15.75,1.76a57.09,57.09,0,0,1,9.47,2.28,90,90,0,0,1,25.71-14.59c6.64-2.51,13.46-5.28,20.05-7.88-1.36-1-2.71-2.11-4.07-3.22a149.39,149.39,0,0,1-19.41-19,33,33,0,0,1-7.81-17.48,24.18,24.18,0,0,1,.34-8.07,27.32,27.32,0,0,1,3.79-8.77c1.33-2.1,2.78-4.18,4.33-6.22a99.44,99.44,0,0,1-13-6c-8.09-4.32-15.06-9.16-18.57-14.13a11.47,11.47,0,0,1-1.92-4.43c.78-5.88,6.65-11.27,15.76-14.74a80.31,80.31,0,0,1,31.32-4.65,89.41,89.41,0,0,1,10.27,1.07c16,3.35,29.71,10.38,34.26,18.12a9.49,9.49,0,0,1,.71,1.52q3.43-.21,6.94-.23c.72,0,1.44,0,2.15,0,40.44.62,72.1,20.79,73,44.54,0,.5,0,1,0,1.48.88.09,1.74.15,2.61.26l.68.17c4.87,1.2,10.09,2.68,15.5,4.16s11.18,2.86,16.54,4.3c.82.22,2.11.47,2.86.73,26.32,6.83,44.09,23.07,44.09,40.29,0,23.86-17.54,35.79-38.31,41.3a9.31,9.31,0,0,1,0,1.67,10.73,10.73,0,0,1-1.36,4.27c-5.39,9.44-22.95,17.45-42.46,19.12-.89.08-1.79.13-2.73.19a72.34,72.34,0,0,1-18.22,12.75c-.56.38-1.57.76-2.2,1.1-4.67,2.55-9.94,5-15.26,7.75-12.07,6.2-27.82,11.17-48.24,11.81-1.79.05-3.54,0-5.33,0a41.53,41.53,0,0,1-10,5.3c-.56.21-1.12.41-1.7.6l-2.13.69-.63.19c-4.73,1.42-9.9,3.08-15.25,4.39a77.67,77.67,0,0,1-15.23,2,90.55,90.55,0,0,1-12-.39q-2.93-.28-5.75-.75c-1.8,1-3.67,2-5.62,2.88l-3.36,1.5c-4,1.76-8.19,3.62-12.47,5.54-11.63,5.17-26,8.24-41.41,8.38-1.48,0-2.95,0-4.41,0-21.55-.56-40.08-6.76-52.14-15.5-5.68-4.11-11-8.33-15.42-12.26-.71-.63-1.38-1.26-2-1.88a93.42,93.42,0,0,1-11.57.94l-2.29,0c-11.41-.07-21.37-2.1-28.56-5a79.77,79.77,0,0,1-13.51-7.05c-33.23-2.06-61-14-75.93-29.82a159.79,159.79,0,0,1-14-16.89c-.5-.72-1-1.44-1.42-2.18a74.11,74.11,0,0,1-7.58-1.91,72.44,72.44,0,0,1-9.16-5.93c-6.62-4.91-11.81-10.43-12.75-16.08-.51-3,.64-6,2.66-8.68-14.2-6.28-24.62-15.48-28.66-25.87a27.46,27.46,0,0,1-1.76-11.67c1.37-22.52,29.81-41.47,67-43.73A6.22,6.22,0,0,1,236.88,1000.9Z" transform="translate(-24.21 -25.92)"/><path class="cls-17" d="M237,1003.09c1.32-4.18,6-8.42,11.5-12.72,3.11-2.42,6.37-4.9,9.69-7.16a79.55,79.55,0,0,1,27.67-4.66,88.27,88.27,0,0,1,15.6,1.35c4.15,1.63,7.88,5.28,11.7,9.71,4.68,5.44,8.9,11.6,10.61,17.44,1.07,3.62.15,7-1.68,10.32-3.2,5.81-6,10.67-10.24,12.38l.67.38c1.55.87,3,1.79,4.45,2.76a43.25,43.25,0,0,1,12.27,12.18c2.14,0,4.27.07,6.41.18,24.76,1.3,46.14,8.19,60.53,17.87,6.85,4.61,14,9,20.52,12.58,2.47,1.35,4.85,2.58,7,3.81a60.36,60.36,0,0,1,12,9c1.94-.61,4-1.17,6.12-1.62a81.35,81.35,0,0,1,25.84-1.11c3.8.47,7.59.94,11.27,1.25,5.66.49,11,.69,15.65.93a58.9,58.9,0,0,1,9.37,1.33,90.56,90.56,0,0,1,25.93-14.15,183.06,183.06,0,0,0,19.6-8.53c-1.14-1.11-2.28-2.29-3.47-3.5-6.19-6.27-12.91-13.19-18.68-19.38a32.94,32.94,0,0,1-8.72-16.84,21.38,21.38,0,0,1,0-8,24.66,24.66,0,0,1,3.8-8.75c1.38-2.07,2.81-4.17,4.28-6.25-3.69-2-7.51-4.57-11.55-7.14-7.47-4.75-14.5-9.57-18.49-14.14a11.44,11.44,0,0,1-2.3-4c1.17-5.34,6.95-10.26,15.75-13.29a79,79,0,0,1,30.23-3.77,85.07,85.07,0,0,1,9.83,1.3c14.55,4,27.79,10.79,32.8,17.76a9.78,9.78,0,0,1,.78,1.35c2.21-.13,4.43-.21,6.69-.22h2.07c39.35.55,69.76,19.93,71.15,42.19,0,.48,0,1,0,1.43.8.15,1.58.27,2.36.44l.6.25c4.28,1.78,9.18,3.76,14.47,5.57s11.07,3.23,16.49,4.59c.75.18,2.22.4,2.89.63,27.19,6.07,45.49,22.3,45.49,38.8,0,21.8-15.59,33.61-36.45,39.24a9.68,9.68,0,0,1-.11,1.51,10.13,10.13,0,0,1-1.49,3.87c-5.74,8.75-22.17,16.67-39.61,19.19l-2.72.32a66.21,66.21,0,0,1-18.88,11.81,22.07,22.07,0,0,1-2.25,1c-4.81,2.4-10.2,4.76-15.41,7.7-11.67,6.59-27.34,12.22-48.16,13.19-1.8.08-3.56,0-5.37,0a45.85,45.85,0,0,1-10.25,4.78c-.57.19-1.15.35-1.73.52s-1.44.4-2.18.6l-.64.17c-4.85,1.27-10,3.06-15.28,4.61a69.1,69.1,0,0,1-15.27,2.44,84.3,84.3,0,0,1-12.08-.22q-3-.26-5.82-.7c-1.86.89-3.79,1.72-5.78,2.46-1.12.41-2.27.84-3.44,1.29-4.07,1.57-8.36,3.4-12.61,5.45-11.47,5.48-26,8.76-41.61,9-1.49,0-3,0-4.45,0-22.22-.5-40.93-7.12-52.36-16-5.54-4.31-11-8.46-15.75-12-.75-.56-1.46-1.11-2.16-1.65a88.49,88.49,0,0,1-11.48.92c-.76,0-1.52,0-2.27,0-11.66-.1-21.57-2.29-28.29-5.24a139.29,139.29,0,0,1-13.46-6.85c-33.86-2.1-61.54-14.52-75.5-30.4-5.07-5.76-10-11.51-14.27-16.51-.56-.66-1.09-1.33-1.58-2a67.69,67.69,0,0,1-7.56-2c-2.72-1.94-5.35-4.27-8-6.61-6-5.21-11.35-10.66-12.79-16.07-.74-2.78.14-5.54,1.74-8-13.65-6.15-23.56-15.06-27.16-24.91a25.22,25.22,0,0,1-1.29-11.12c2-21,29-38.88,64.78-41.08A5.52,5.52,0,0,1,237,1003.09Z" transform="translate(-24.21 -25.92)"/><path class="cls-18" d="M237.15,1005.28c1.8-3.84,6.75-7.78,12.06-12.15,3.08-2.54,6.13-5.24,9.09-7.74a76.22,76.22,0,0,1,27.57-4.8A86.51,86.51,0,0,1,301.5,982c2.66,1.71,5.12,5.69,8.29,10.54,3.79,5.8,7.92,12.25,10.21,18,1.41,3.57.83,7-.57,10.24-2.67,6.27-3.79,11.36-6.27,12.87l.69.32c1.59.75,3.12,1.56,4.6,2.41a46.88,46.88,0,0,1,13.13,10.81c2.14.06,4.27.13,6.4.28,25.18,1.74,46.44,9.37,59.8,19.52a116.22,116.22,0,0,0,20.44,12.52c2.52,1.17,5,2.16,7.21,3.12A61.84,61.84,0,0,1,438,1090.1a61.51,61.51,0,0,1,6.15-1.44,77.84,77.84,0,0,1,25.87-.3c3.76.63,7.54,1.17,11.23,1.44a125.4,125.4,0,0,0,15.56.11,59.82,59.82,0,0,1,9.26.39,90.54,90.54,0,0,1,26.15-13.72,95.43,95.43,0,0,0,19.15-9.19c-.91-1.19-1.84-2.47-2.86-3.77a202.8,202.8,0,0,0-18-19.8,33.17,33.17,0,0,1-9.64-16.19,19.76,19.76,0,0,1-.42-8,22.47,22.47,0,0,1,3.82-8.73c1.41-2.06,2.83-4.18,4.23-6.29-3-2.35-6.29-5.37-10.1-8.25-6.84-5.15-13.93-10-18.42-14.15a11.82,11.82,0,0,1-2.67-3.66c1.55-4.79,7.26-9.24,15.75-11.84a78,78,0,0,1,29.13-2.88,79.47,79.47,0,0,1,9.4,1.52c13.12,4.58,25.84,11.19,31.33,17.41a9.13,9.13,0,0,1,.85,1.17c2.12-.12,4.27-.21,6.44-.21h2c38.24.49,67.43,19.08,69.25,39.85,0,.46,0,.91,0,1.37.73.21,1.42.39,2.11.61l.52.35a87.83,87.83,0,0,0,13.44,7,106,106,0,0,0,16.45,4.86c.67.15,2.32.34,2.91.54,28,5.32,46.9,21.54,46.9,37.31,0,19.75-13.65,31.43-34.61,37.18a8.15,8.15,0,0,1-.21,1.36,9.47,9.47,0,0,1-1.63,3.47c-6.1,8-21.38,15.89-36.75,19.24-.84.16-1.74.3-2.71.45a62,62,0,0,1-19.53,10.89c-.43.29-1.78.6-2.31.84-5,2.24-10.46,4.5-15.56,7.65-11.27,7-26.85,13.25-48.09,14.56-1.8.11-3.58.1-5.41.13a49.66,49.66,0,0,1-10.53,4.26c-.58.17-1.17.31-1.77.45s-1.46.34-2.21.51l-.65.15a147.17,147.17,0,0,0-15.33,4.82,62,62,0,0,1-15.29,2.88,82.81,82.81,0,0,1-12.19-.06c-2-.14-4-.37-5.87-.64-1.93.75-3.92,1.44-6,2-1.15.33-2.32.69-3.52,1.08a89.56,89.56,0,0,0-12.75,5.36c-11.3,5.81-26,9.28-41.81,9.57-1.5,0-3,0-4.49,0-22.89-.43-41.78-7.5-52.58-16.52a141.27,141.27,0,0,0-16.08-11.68l-2.29-1.41a89.5,89.5,0,0,1-11.4.9c-.76,0-1.51,0-2.26,0-11.91-.14-21.77-2.49-28-5.43-4.9-2.3-9.49-4.69-13.43-6.66-34.47-2.13-62.1-15.09-75.06-31a204,204,0,0,0-14.56-16.13c-.61-.6-1.18-1.21-1.72-1.83a66.29,66.29,0,0,1-7.55-2c-2.21-2.18-4.45-4.76-6.94-7.3-5.38-5.49-10.86-10.87-12.83-16.06a8.9,8.9,0,0,1,.82-7.36c-13.1-6-22.51-14.63-25.66-23.95a23.28,23.28,0,0,1-.82-10.57c2.65-19.41,28.25-36.3,62.55-38.44A4.42,4.42,0,0,1,237.15,1005.28Z" transform="translate(-24.21 -25.92)"/><path class="cls-19" d="M237.29,1007.47c2.33-3.52,7.52-7.13,12.62-11.59,3-2.66,5.9-5.56,8.5-8.32a73.09,73.09,0,0,1,27.46-4.94,84.49,84.49,0,0,1,15.65,1.43c1.18,1.79,2.38,6.1,4.89,11.39,2.92,6.14,6.93,12.88,9.81,18.63a13.06,13.06,0,0,1,.54,10.15c-2.1,6.77-1.59,12.07-2.3,13.36l.71.27q2.44,1,4.74,2.05a52.16,52.16,0,0,1,14,9.45c2.15.08,4.28.2,6.4.38,25.6,2.2,46.72,10.57,59.07,21.16a73,73,0,0,0,20.36,12.46c2.57,1,5.07,1.76,7.4,2.44a61.52,61.52,0,0,1,13.18,5.86,60.43,60.43,0,0,1,6.19-1.28,74.73,74.73,0,0,1,25.91.51,75.79,75.79,0,0,0,11.18,1.65,72.9,72.9,0,0,0,15.47-.72,61.75,61.75,0,0,1,9.15-.56A90.49,90.49,0,0,1,534.57,1078a63.69,63.69,0,0,0,18.7-9.84c-.67-1.28-1.4-2.65-2.25-4.05a90.74,90.74,0,0,0-17.23-20.22,33.8,33.8,0,0,1-10.56-15.55,18,18,0,0,1-.79-7.89,20.74,20.74,0,0,1,3.82-8.71c1.46-2,2.86-4.17,4.19-6.31A83.08,83.08,0,0,0,521.8,996c-6.23-5.54-13.34-10.38-18.34-14.16a13.11,13.11,0,0,1-3-3.28c1.94-4.25,7.58-8.2,15.74-10.39a76.6,76.6,0,0,1,28-2,67.5,67.5,0,0,1,9,1.75c11.7,5.19,23.85,11.59,29.88,17a10.28,10.28,0,0,1,.9,1c2.05-.11,4.11-.2,6.2-.21h1.92c37.14.41,65.13,18.22,67.36,37.49.05.44.05.88.08,1.32.65.27,1.26.52,1.86.79l.43.43a51.23,51.23,0,0,0,12.43,8.39,70.68,70.68,0,0,0,16.39,5.14c.6.13,2.44.28,2.94.45,28.92,4.56,48.3,20.77,48.3,35.82,0,17.69-11.69,29.25-32.76,35.11A9,9,0,0,1,707,1115c-6.5,7.35-20.6,15.11-33.89,19.3-.83.19-1.73.37-2.71.58a59.4,59.4,0,0,1-20.18,9.95c-.37.25-1.89.51-2.38.71-5.1,2.07-10.71,4.24-15.69,7.6-10.89,7.34-26.37,14.29-48,15.94-1.81.14-3.61.16-5.45.22a56.26,56.26,0,0,1-10.82,3.74c-.6.14-1.19.26-1.8.37s-1.49.28-2.26.42l-.66.13c-5.09,1-10.31,3-15.37,5a55.71,55.71,0,0,1-15.32,3.3,82.18,82.18,0,0,1-12.29.11c-2-.12-4-.33-5.93-.59q-3,.93-6.1,1.61-1.78.38-3.6.87a60.72,60.72,0,0,0-12.9,5.27c-11.14,6.12-26,9.8-42,10.16-1.51,0-3,0-4.52,0-23.57-.37-42.63-7.88-52.81-17a76.53,76.53,0,0,0-16.41-11.38c-.83-.41-1.63-.82-2.42-1.18a86.77,86.77,0,0,1-11.32.89H359.9c-12.16-.17-22-2.7-27.72-5.62-4.74-2.39-9.31-4.73-13.38-6.46-35.09-2.17-62.66-15.68-74.63-31.55a92.77,92.77,0,0,0-14.85-15.75c-.66-.54-1.28-1.09-1.87-1.65a62.93,62.93,0,0,1-7.53-2.07c-1.7-2.41-3.54-5.23-5.83-8-4.77-5.75-10.33-11.07-12.87-16a8.24,8.24,0,0,1-.1-6.7c-12.55-5.89-21.46-14.21-24.16-23a21.36,21.36,0,0,1-.35-10c3.25-17.85,27.47-33.72,60.32-35.79A3.56,3.56,0,0,1,237.29,1007.47Z" transform="translate(-24.21 -25.92)"/><path class="cls-20" d="M237.43,1009.66c2.93-3.18,8.28-6.5,13.19-11a65.06,65.06,0,0,0,7.9-8.9c5.67-2.46,15.07-5.07,27.35-5.07a81.79,81.79,0,0,1,15.67,1.47,29.18,29.18,0,0,0,1.5,12.22c2.06,6.47,5.93,13.53,9.4,19.23a13.55,13.55,0,0,1,1.65,10.07c-1.47,7.29.6,12.77,1.67,13.84l.74.23c1.66.51,3.29,1.07,4.87,1.68a59.71,59.71,0,0,1,14.85,8.08c2.16.12,4.29.27,6.41.49,26,2.66,47,11.8,58.32,22.81a49.4,49.4,0,0,0,27.88,14.15,61.42,61.42,0,0,1,13.78,4.26c2-.45,4.08-.84,6.23-1.11a71.27,71.27,0,0,1,26,1.33,54.8,54.8,0,0,0,11.13,1.84,50.34,50.34,0,0,0,15.37-1.55,63.51,63.51,0,0,1,9-1.5,91,91,0,0,1,26.58-12.84,48,48,0,0,0,18.25-10.49,42.39,42.39,0,0,0-1.64-4.34A58.23,58.23,0,0,0,537,1043.91,34.54,34.54,0,0,1,525.55,1029a16.61,16.61,0,0,1-1.18-7.84,19.19,19.19,0,0,1,3.84-8.68,69.07,69.07,0,0,0,4.14-6.35,43.43,43.43,0,0,0-7.2-10.46c-5.63-5.92-12.75-10.8-18.26-14.18a15,15,0,0,1-3.43-2.89c2.33-3.7,7.9-7.15,15.74-8.94a75.09,75.09,0,0,1,26.95-1.1,60.37,60.37,0,0,1,8.52,2c10.27,5.81,21.83,12,28.41,16.69a8.8,8.8,0,0,1,1,.83c2-.12,3.94-.2,5.94-.21h1.85c36,.35,62.85,17.37,65.46,35.14.07.43.09.84.13,1.26.58.34,1.1.65,1.61,1l.35.51a36,36,0,0,0,11.4,9.8c4.93,2.8,10.7,4.36,16.34,5.42.54.1,2.55.22,3,.36,29.78,3.8,49.71,20,49.71,34.33,0,15.63-9.75,27.06-30.91,33a10.13,10.13,0,0,1-.42,1.06,9.23,9.23,0,0,1-1.9,2.68c-6.91,6.63-19.82,14.32-31,19.35-.81.23-1.7.46-2.7.71a57.32,57.32,0,0,1-20.83,9c-.31.21-2,.42-2.44.58-5.28,1.9-11,4-15.84,7.55-10.5,7.71-25.89,15.33-48,17.32-1.81.16-3.63.22-5.49.31a63.05,63.05,0,0,1-11.1,3.22c-.61.12-1.22.2-1.83.3l-2.3.33-.67.1c-5.22.8-10.46,2.94-15.42,5.26a50.9,50.9,0,0,1-15.35,3.73,81.21,81.21,0,0,1-12.39.27c-2-.1-4-.29-6-.54-2.07.48-4.16.89-6.27,1.18-1.21.17-2.44.4-3.68.67a46,46,0,0,0-13,5.18c-11,6.42-26,10.33-42.2,10.76-1.52,0-3.05,0-4.57,0-24.24-.31-43.45-8.28-53-17.55a52.68,52.68,0,0,0-16.74-11.09c-.87-.34-1.72-.67-2.56-.94a83.75,83.75,0,0,1-11.23.86h-2.23c-12.42-.2-22.15-2.92-27.45-5.8a96.24,96.24,0,0,0-13.34-6.27c-35.71-2.21-63.19-16.29-74.19-32.13a59.89,59.89,0,0,0-15.14-15.37q-1.07-.72-2-1.47a58.82,58.82,0,0,1-7.51-2.12,52.47,52.47,0,0,0-4.73-8.67c-4.18-6-9.75-11.29-12.91-16a8.06,8.06,0,0,1-1-6c-12-5.76-20.41-13.78-22.65-22a19.37,19.37,0,0,1,.11-9.47c3.82-16.29,26.69-31.14,58.09-33.14A3.22,3.22,0,0,1,237.43,1009.66Z" transform="translate(-24.21 -25.92)"/><path class="cls-21" d="M237.56,1011.85c3.6-2.79,9.05-5.86,13.76-10.46a44,44,0,0,0,7.3-9.49c5.29-2.42,14.65-5.21,27.25-5.21a79.35,79.35,0,0,1,15.7,1.52c-1.79,1.95-3,6.87-1.91,13,1.24,6.8,4.94,14.18,9,19.84a14.29,14.29,0,0,1,2.76,10c-.77,7.83,2.79,13.48,5.64,14.34l.76.17c1.7.39,3.37.84,5,1.33a70.34,70.34,0,0,1,15.71,6.71c2.16.15,4.29.34,6.4.59,26.43,3.14,47.24,13,57.59,24.45A41.74,41.74,0,0,0,422.76,1091a38.43,38.43,0,0,0,7.76,1.06,60.93,60.93,0,0,1,14.4,2.66c2-.39,4.1-.73,6.26-.94,9.26-.9,18.73-.14,26,2.15a43.51,43.51,0,0,0,11.08,2,39.08,39.08,0,0,0,15.29-2.38,61.67,61.67,0,0,1,8.94-2.44,90.94,90.94,0,0,1,26.79-12.41,38.49,38.49,0,0,0,17.81-11.15,29.81,29.81,0,0,0-1-4.61c-2.5-7.91-8.54-15.94-15.78-21-6-4.22-10.18-9.24-12.39-14.26a15.5,15.5,0,0,1-1.55-7.78,17.66,17.66,0,0,1,3.85-8.67,47.63,47.63,0,0,0,4.09-6.38,30.22,30.22,0,0,0-5.75-11.56,55.47,55.47,0,0,0-18.18-14.2,18,18,0,0,1-3.81-2.5c2.71-3.16,8.23-6.09,15.74-7.48a73.53,73.53,0,0,1,25.85-.22,52,52,0,0,1,8.09,2.19c8.84,6.43,19.77,12.5,26.94,16.33a11.39,11.39,0,0,1,1,.66c1.88-.11,3.78-.19,5.7-.2h1.77c35,.27,60.6,16.51,63.57,32.79.08.4.12.8.17,1.2.5.4,1,.77,1.36,1.16.09.2.17.39.27.59a28.84,28.84,0,0,0,10.37,11.22c4.79,3.11,10.57,4.75,16.29,5.69.47.08,2.66.16,3,.27,30.64,3,51.11,19.24,51.11,32.84s-7.8,24.88-29.06,31a8.32,8.32,0,0,1-.52.9,10.45,10.45,0,0,1-2,2.29c-7.37,5.89-19,13.54-28.18,19.41-.78.27-1.68.54-2.69.83-4.6,3.09-11.83,6.39-21.49,8.09-.24.17-2.11.33-2.5.45-5.46,1.69-11.23,3.72-16,7.51-10.11,8.06-25.4,16.35-47.87,18.69-1.82.19-3.65.29-5.54.39a70.85,70.85,0,0,1-11.37,2.71c-.63.09-1.25.15-1.88.22l-2.34.24-.68.08c-5.34.64-10.6,2.86-15.46,5.48-2.68,1.45-8,3.26-15.37,4.15a78.82,78.82,0,0,1-12.5.44c-2-.08-4.06-.25-6-.48-2.13.34-4.28.61-6.43.75a36.48,36.48,0,0,0-16.94,5.55c-10.82,6.73-26,10.85-42.4,11.35-1.53,0-3.07.06-4.6,0-24.92-.24-44.28-8.7-53.26-18.06a40.53,40.53,0,0,0-17.07-10.8c-.91-.27-1.8-.52-2.69-.71a81.34,81.34,0,0,1-11.15.85c-.75,0-1.49,0-2.22,0-12.67-.23-22.34-3.15-27.16-6a60.4,60.4,0,0,0-13.3-6.07c-36.33-2.25-63.72-16.9-73.76-32.71a44.44,44.44,0,0,0-15.43-15c-.76-.42-1.48-.86-2.16-1.3a56.28,56.28,0,0,1-7.49-2.17,34.31,34.31,0,0,0-3.62-9.35c-3.61-6.22-9.12-11.53-13-16a8.51,8.51,0,0,1-1.93-5.37c-11.46-5.63-19.38-13.36-21.16-21.08a17.47,17.47,0,0,1,.58-8.91c4.34-14.73,25.91-28.55,55.86-30.49A3.61,3.61,0,0,1,237.56,1011.85Z" transform="translate(-24.21 -25.92)"/><path class="cls-22" d="M237.7,1014c4.29-2.31,9.81-5.23,14.32-9.9a33.78,33.78,0,0,0,6.71-10.07c4.91-2.38,14.23-5.34,27.14-5.34a76.82,76.82,0,0,1,15.72,1.56c-3.27,2-5.71,7.26-5.31,13.89.43,7.13,3.94,14.82,8.59,20.43a15.5,15.5,0,0,1,3.88,9.89c0,8.34,5,14.17,9.61,14.82l.78.13q2.61.4,5.16,1a82.64,82.64,0,0,1,16.57,5.35c2.16.18,4.3.41,6.4.69,26.84,3.62,47.47,14.31,56.86,26.1a34.25,34.25,0,0,0,20.14,12.29,30.58,30.58,0,0,0,8,.37,60.15,60.15,0,0,1,15,1.06c2-.33,4.14-.61,6.3-.76,9.52-.69,19.07.38,26,3a34.74,34.74,0,0,0,11,2.24,32,32,0,0,0,15.2-3.2,59.6,59.6,0,0,1,8.83-3.39,91.33,91.33,0,0,1,27-12,32.25,32.25,0,0,0,17.36-11.8,25.49,25.49,0,0,0-.43-4.89c-1.61-8.31-7.45-16.63-15.06-21.46-6.29-4-10.83-8.81-13.31-13.62a14.51,14.51,0,0,1-1.92-7.72,16.42,16.42,0,0,1,3.86-8.64,38.2,38.2,0,0,0,4-6.42,24.9,24.9,0,0,0-4.3-12.67,40,40,0,0,0-18.1-14.2,23.81,23.81,0,0,1-4.2-2.12c3.11-2.62,8.57-5,15.74-6a72.33,72.33,0,0,1,24.76.66,43.52,43.52,0,0,1,7.65,2.43,83.44,83.44,0,0,0,25.48,16c.39.15.75.33,1.1.48,1.8-.1,3.61-.18,5.45-.2h1.69c33.85.21,58.38,15.66,61.68,30.44.09.39.15.77.21,1.15a14.29,14.29,0,0,1,1.11,1.34l.18.67a25.08,25.08,0,0,0,9.35,12.63c4.65,3.43,10.44,5.18,16.24,6,.4.05,2.77.09,3,.17,31.51,2.28,52.52,18.48,52.52,31.35,0,11.51-5.85,22.7-27.21,28.93-.2.25-.4.49-.63.74a11.29,11.29,0,0,1-2.17,1.89c-7.85,5.12-18.25,12.77-25.31,19.47-.77.31-1.66.63-2.69,1-4.62,2.83-12.09,5.88-22.14,7.15-.18.13-2.23.24-2.56.33-5.66,1.44-11.49,3.45-16.12,7.45-9.74,8.42-24.93,17.38-47.8,20.07-1.83.22-3.68.35-5.58.48a80.49,80.49,0,0,1-11.66,2.18c-.64.08-1.28.11-1.91.15l-2.38.15-.69.06c-5.47.48-10.77,2.75-15.5,5.7-2.41,1.49-7.76,3.53-15.41,4.57a78.39,78.39,0,0,1-12.6.61q-3.09-.11-6.09-.43c-2.2.21-4.4.33-6.59.33a31.23,31.23,0,0,0-3.85.25,31.7,31.7,0,0,0-13.32,5c-10.68,7-26.06,11.37-42.6,11.94-1.54.06-3.09.08-4.64.06-25.59-.18-45.08-9.12-53.47-18.57a33.24,33.24,0,0,0-17.41-10.51,28.59,28.59,0,0,0-2.82-.47,82,82,0,0,1-11.07.83c-.74,0-1.48,0-2.2,0-12.92-.26-22.52-3.39-26.89-6.18a43,43,0,0,0-13.25-5.87c-36.95-2.29-64.22-17.53-73.33-33.28A35.34,35.34,0,0,0,230.14,1105c-.82-.35-1.58-.73-2.31-1.11a52.65,52.65,0,0,1-7.48-2.23,27,27,0,0,0-2.51-10c-3.06-6.45-8.46-11.83-13-16a10.51,10.51,0,0,1-2.85-4.71c-10.91-5.5-18.33-12.93-19.66-20.12a15.87,15.87,0,0,1,1-8.36c4.82-13.18,25.13-26,53.63-27.84A4.37,4.37,0,0,1,237.7,1014Z" transform="translate(-24.21 -25.92)"/><path class="cls-23" d="M237.84,1016.23a36.12,36.12,0,0,0,14.89-9.33,28.26,28.26,0,0,0,6.11-10.66c4.53-2.34,13.81-5.48,27-5.48a75.32,75.32,0,0,1,15.75,1.6c-4.76,2.11-8.38,7.67-8.72,14.73-.35,7.48,2.94,15.48,8.19,21a17,17,0,0,1,5,9.81c.87,8.82,7.18,14.87,13.59,15.3l.8.08q2.66.24,5.31.6a102.23,102.23,0,0,1,17.43,4c2.16.22,4.3.48,6.4.8,27.25,4.1,47.66,15.58,56.12,27.75a29,29,0,0,0,20.06,12.23,26.08,26.08,0,0,0,8.14-.32,58.46,58.46,0,0,1,15.61-.53c2.05-.28,4.16-.5,6.32-.6,9.79-.47,19.42.92,26.06,3.77a29.71,29.71,0,0,0,11,2.44,27.64,27.64,0,0,0,15.1-4,59.67,59.67,0,0,1,8.73-4.34A91.82,91.82,0,0,1,544,1083.52a27.85,27.85,0,0,0,16.91-12.44,22.07,22.07,0,0,0,.18-5.17c-.72-8.72-6.35-17.32-14.33-21.88-6.59-3.77-11.49-8.38-14.22-13a13.83,13.83,0,0,1-2.31-7.66c.15-2.74,1.46-5.64,3.88-8.62a30.93,30.93,0,0,0,4-6.46,22.54,22.54,0,0,0-2.86-13.77,31.38,31.38,0,0,0-18-14.22,31.18,31.18,0,0,1-4.58-1.74A39.24,39.24,0,0,1,528.34,974,70.2,70.2,0,0,1,552,975.57a36.67,36.67,0,0,1,7.22,2.65,46.46,46.46,0,0,0,24,15.61c.4.1.79.22,1.17.31,1.71-.1,3.44-.17,5.19-.19h1.62c32.76.14,56.19,14.79,59.79,28.09.1.37.18.74.26,1.1a11.64,11.64,0,0,1,.85,1.51c0,.26.06.51.1.77a23.14,23.14,0,0,0,8.32,14c4.51,3.74,10.3,5.64,16.19,6.26.33,0,2.89,0,3.06.09,32.37,1.51,53.92,17.7,53.92,29.85,0,9.45-3.9,20.52-25.36,26.87-.23.2-.47.39-.73.59a16.3,16.3,0,0,1-2.3,1.49c-8.36,4.28-17.47,12-22.46,19.53-.75.34-1.64.71-2.68,1.09-4.65,2.58-12.35,5.37-22.79,6.22-.12.09-2.35.14-2.62.2-5.87,1.12-11.76,3.18-16.27,7.4-9.37,8.78-24.45,18.36-47.73,21.45-1.83.24-3.7.41-5.62.57a92.68,92.68,0,0,1-11.94,1.66c-.66,0-1.3,0-2,.07l-2.42.06-.7,0a30,30,0,0,0-15.54,5.91c-2.13,1.53-7.49,3.81-15.44,5a76.59,76.59,0,0,1-12.7.77q-3.11-.08-6.15-.37c-2.26.07-4.52,0-6.75-.1a27.16,27.16,0,0,0-3.93,0,27.72,27.72,0,0,0-13.46,4.9c-10.52,7.33-26.07,11.9-42.8,12.55-1.55.06-3.11.08-4.67.08-26.27-.13-45.88-9.56-53.7-19.1a28.42,28.42,0,0,0-17.74-10.21,26.83,26.83,0,0,0-3-.24,77.77,77.77,0,0,1-11,.81c-.73,0-1.46,0-2.18,0-13.17-.3-22.69-3.64-26.61-6.38a33.36,33.36,0,0,0-13.21-5.68c-37.57-2.32-64.7-18.15-72.88-33.85a29.46,29.46,0,0,0-16-14.25c-.86-.3-1.68-.61-2.45-.93a51,51,0,0,1-7.47-2.28,23.76,23.76,0,0,0-1.4-10.72c-2.52-6.68-7.77-12.2-13-16a15.48,15.48,0,0,1-3.76-4c-10.36-5.36-17.26-12.51-18.16-19.16a14.6,14.6,0,0,1,1.52-7.81c5.26-11.66,24.35-23.39,51.4-25.2A6.33,6.33,0,0,1,237.84,1016.23Z" transform="translate(-24.21 -25.92)"/><path class="cls-24" d="M238,1018.42a27.25,27.25,0,0,0,15.45-8.77,24.61,24.61,0,0,0,5.51-11.24c4.15-2.31,13.39-5.61,26.93-5.61a73,73,0,0,1,15.77,1.64c-6.24,2.18-11,8.09-12.12,15.56a25.31,25.31,0,0,0,7.79,21.63c3.45,3.24,5.51,6.7,6.09,9.72,1.78,9.27,9.37,15.58,17.57,15.8l.81,0c1.81,0,3.63.12,5.45.24a123.48,123.48,0,0,1,18.29,2.61c2.17.25,4.31.55,6.4.9,27.66,4.64,47.83,16.86,55.39,29.39a25.27,25.27,0,0,0,20,12.18,23.83,23.83,0,0,0,8.33-1,57.93,57.93,0,0,1,16.21-2.13c2.07-.23,4.2-.38,6.36-.43,10-.23,19.75,1.47,26.1,4.59a25.54,25.54,0,0,0,10.94,2.63,24.51,24.51,0,0,0,15-4.86,58.86,58.86,0,0,1,8.62-5.27,92.3,92.3,0,0,1,27.44-11.11,24.69,24.69,0,0,0,16.46-13.1,21.91,21.91,0,0,0,.78-5.44,25.07,25.07,0,0,0-13.6-22.3c-6.9-3.55-12.16-7.94-15.14-12.33a13.17,13.17,0,0,1-2.68-7.6c.07-2.7,1.38-5.59,3.89-8.6a26,26,0,0,0,3.94-6.49,21.92,21.92,0,0,0-1.41-14.87,26,26,0,0,0-17.94-14.24,42.71,42.71,0,0,1-5-1.35,50.77,50.77,0,0,1,15.74-3.12A67.43,67.43,0,0,1,554,977.91a30.11,30.11,0,0,1,6.78,2.87A30.84,30.84,0,0,0,583.29,996l1.22.14c1.64-.1,3.29-.17,5-.19H591c31.66.07,54,13.9,57.9,25.74.11.35.21.69.3,1a10.41,10.41,0,0,1,.6,1.69c0,.29,0,.57,0,.85a22.47,22.47,0,0,0,7.29,15.45,26.05,26.05,0,0,0,16.14,6.53c.26,0,3,0,3.09,0,33.24.76,55.33,16.94,55.33,28.36,0,7.39-1.95,18.34-23.52,24.81-.27.14-.54.29-.83.43a26.56,26.56,0,0,1-2.44,1.1c-8.87,3.37-16.68,11.2-19.6,19.58a28.15,28.15,0,0,1-2.67,1.23c-4.67,2.32-12.61,4.86-23.44,5.29-.06,0-2.46,0-2.69.06-6.09.68-12,2.92-16.41,7.36-9,9.12-24,19.39-47.65,22.82-1.84.27-3.73.48-5.67.65a106.9,106.9,0,0,1-12.22,1.15c-.67,0-1.32,0-2,0l-2.46,0h-.71a25.64,25.64,0,0,0-15.59,6.13c-1.87,1.56-7.23,4.08-15.46,5.43a73.92,73.92,0,0,1-12.81.93q-3.13,0-6.2-.31a68.47,68.47,0,0,1-6.92-.52,24.35,24.35,0,0,0-4-.17,24.69,24.69,0,0,0-13.61,4.81c-10.36,7.63-26.08,12.43-43,13.14-1.57.07-3.14.1-4.72.1-26.94-.07-46.65-10-53.92-19.61a24.94,24.94,0,0,0-18.07-9.92,22.76,22.76,0,0,0-3.09,0,76.76,76.76,0,0,1-10.91.79l-2.17,0c-13.42-.34-22.85-3.9-26.33-6.56a26.91,26.91,0,0,0-13.16-5.49c-38.19-2.36-65.17-18.79-72.45-34.43a25.36,25.36,0,0,0-16.3-13.87c-.91-.24-1.78-.49-2.6-.76a47.55,47.55,0,0,1-7.45-2.33,22.45,22.45,0,0,0-.29-11.4,27.72,27.72,0,0,0-13.08-16,28,28,0,0,1-4.68-3.39c-9.81-5.23-16.21-12.09-16.66-18.2a13.31,13.31,0,0,1,2-7.26c5.66-10.17,23.57-20.81,49.17-22.55C237.38,1018.56,237.67,1018.47,238,1018.42Z" transform="translate(-24.21 -25.92)"/><path class="cls-25" d="M447.47,1187.61c-27.61,0-47.42-10.43-54.14-20.12a22.37,22.37,0,0,0-18.39-9.63,23.39,23.39,0,0,0-3.23.23,74.53,74.53,0,0,1-10.83.78c-14.85,0-25-4.06-28.2-6.78a22.46,22.46,0,0,0-13.13-5.29c-38.81-2.4-65.6-19.43-72-35A22.4,22.4,0,0,0,231,1098.3a48.88,48.88,0,0,1-10.18-3,22.38,22.38,0,0,0-12.3-28.08c-12.41-5.31-20.76-13.33-20.76-20,0-9.88,19.18-24.81,50.4-26.67a22.4,22.4,0,0,0,20.94-20c3.77-2.27,13-5.74,26.82-5.74a70.87,70.87,0,0,1,15.79,1.68,22.4,22.4,0,0,0-8.13,38.62c3.79,3.19,6.34,6.61,7.2,9.64a22.4,22.4,0,0,0,21.54,16.28l.84,0c1.84-.06,3.71-.12,5.58-.12,41.36,0,71.65,16.75,80.21,33.29a22.35,22.35,0,0,0,28.42,10.42c6.24-2.57,14.49-4,23.21-4,10.3,0,20.07,2,26.13,5.4a22.38,22.38,0,0,0,25.82-2.85c8.51-7.6,21.35-13.59,36.17-16.89a22.39,22.39,0,0,0,4.51-42.19c-11.6-5.35-19.1-12.9-19.1-19.23,0-2.66,1.31-5.55,3.9-8.57A22.4,22.4,0,0,0,524,979.56c-1.92-.27-3.7-.6-5.33-1a71.08,71.08,0,0,1,15.73-1.67c15.34,0,25,4.27,27.82,6.43a22.4,22.4,0,0,0,21.09,14.89l1.29,0c2-.12,4.08-.2,6.16-.2,33.45,0,55.85,15.56,56.7,26.25,0,.31,0,.62-.07.93a22.39,22.39,0,0,0,22.36,23.67l3.11-.09c34.11,0,56.74,16.17,56.74,26.87,0,5.61,0,17.28-25.17,23.73A22.41,22.41,0,0,0,687.71,1119c-3.8,2.27-13,5.71-26.76,5.71l-2.74-.07a22.4,22.4,0,0,0-16.55,7.31c-10.63,11.66-30.68,25.56-65.8,25.56-.68,0-1.35,0-2-.08-.83,0-1.66-.09-2.49-.11l-.73,0a22.41,22.41,0,0,0-15.63,6.36c-2.33,2.27-12.33,6.95-28.4,6.95a73.31,73.31,0,0,1-13.34-1.2,22.48,22.48,0,0,0-17.83,4.34C484.28,1182.43,466.36,1187.61,447.47,1187.61Z" transform="translate(-24.21 -25.92)"/><path class="cls-26" d="M634.08,1040.56c-35.82,0-66,14.83-75.79,35.16q-3.3,1.2-6.39,2.6C535.83,1071.77,516.63,1068,496,1068c-21.31,0-41,4.12-57.41,11.06a93.94,93.94,0,0,0-9.12-3.76c-1-26.68-35.95-48.13-79-48.13-43.7,0-79.12,22.06-79.12,49.27,0,18.44,16.3,34.49,40.4,42.94,1,26.67,36,48.12,79,48.12a124.79,124.79,0,0,0,19.13-1.51c18.18,17.65,49.95,29.36,86.12,29.36,35.89,0,67.45-11.53,85.69-29a126,126,0,0,0,16.57,1.1c35.82,0,66-14.83,75.79-35.16,23.41-8.55,39.17-24.35,39.17-42.47C713.21,1062.61,677.78,1040.56,634.08,1040.56Z" transform="translate(-24.21 -25.92)"/><path class="cls-27" d="M273.14,1076.08c0-16.57,14.84-31.83,37.38-39.79a111.81,111.81,0,0,1,44.17-6.11,91.46,91.46,0,0,1,12,1.64,217.93,217.93,0,0,1,21.86,5.92c2.12.66,4.18,1.38,6.2,2.17,2.75,1.07,5.42,2.17,8,3.29s4.76,2.12,7,3.24c14.09,7.2,23.56,17.88,25.59,29.88a94.79,94.79,0,0,1,9.18,3.45,140.57,140.57,0,0,1,37.63-8.2c2.84-.23,5.74-.42,8.67-.61,3.6-.22,7.25-.39,10.92-.52,1.74-.06,3.47-.1,5.2-.1,5.85,0,11.5,0,16.8.3a136.58,136.58,0,0,1,33,6.32c2.07-.91,4.21-1.74,6.42-2.52a45.27,45.27,0,0,1,13.76-14.64c16-11,38.93-15.75,62.18-15.07,39.71,1.17,71,21.52,69.7,46.74-.5,9.65-5.64,18.79-13.94,26.5A73.06,73.06,0,0,1,671,1132.1c-9.78,19.08-38.68,33-73,33a121.49,121.49,0,0,1-13.62-.76l-2.95-.34a140.74,140.74,0,0,1-13.67,10c-18.14,11.73-43.79,19-72,19-28.42,0-54.2-7.35-72.37-19.21a140.88,140.88,0,0,1-13.75-10.15l-3.4.46a120.91,120.91,0,0,1-15.73,1c-28.57,0-53.08-9.55-65.74-23.11-7-7.45-11.52-16.15-12.62-24.9C288.91,1109,273.14,1093.54,273.14,1076.08Z" transform="translate(-24.21 -25.92)"/><path class="cls-28" d="M275,1075.78c0-16,15.61-31.39,39.32-38.5a108,108,0,0,1,44.65-4,64.2,64.2,0,0,1,11.6,2.67c6.65,2.16,13.87,5,21.17,7.36,2.14.67,4.22,1.42,6.28,2.24,2.77,1.11,5.51,2.17,8.14,3.17s4.88,1.83,7.12,2.74c14.16,5.74,24.32,15.16,27.9,26,3.21.92,6.28,2,9.24,3.14A140.72,140.72,0,0,1,488,1074c2.83-.1,5.72-.21,8.65-.38,3.55-.2,7.15-.41,10.75-.67,1.72-.12,3.44-.22,5.16-.29,5.82-.21,11.34-1.1,16.37-.86,10.51.48,21.6,1.24,32.5,3.81,2.08-.87,4.22-1.68,6.44-2.43a44.75,44.75,0,0,1,14.46-13.38C600,1049.54,623,1047.54,644,1048.9c35.7,2.33,62.91,21,60.29,44.21-1,8.89-6.08,17.52-13.8,25-5.69,5.49-13.38,10.23-22.47,13.83-9.8,17.81-37.39,30.85-70.16,30.85a121.74,121.74,0,0,1-13.62-.77l-3-.33c-4.24,3.06-9,6.29-13.85,9.59-17.8,12-43.57,19.35-71.85,19.35-28.46,0-54.37-7.49-72.18-19.58-4.93-3.36-9.68-6.66-13.93-9.77l-3.41.44a118,118,0,0,1-15.73,1.07c-29.1,0-53.53-10.06-64.83-23.45-6.38-7.57-11-16.27-12.85-24.45C290.21,1107,275,1092.25,275,1075.78Z" transform="translate(-24.21 -25.92)"/><path class="cls-29" d="M276.81,1075.47c0-15.39,16.37-30.92,41.24-37.21,15.2-3.84,31-4.77,45.15-2a47.57,47.57,0,0,1,11.16,3.71c6,2.87,13,6.4,20.48,8.8,2.15.69,4.25,1.45,6.34,2.31,2.81,1.14,5.6,2.16,8.31,3.06,2.53.84,5,1.54,7.3,2.23,14.19,4.31,25.08,12.45,30.21,22,3.22.81,6.31,1.77,9.3,2.83a140.07,140.07,0,0,1,37.64-4.89c2.81,0,5.71,0,8.63-.15,3.5-.18,7.05-.43,10.57-.81,1.71-.19,3.42-.36,5.14-.48,5.78-.42,11.14-1.43,15.93-2,9.68-1.23,20.71-.5,32,1.31q3.12-1.27,6.47-2.35a45.1,45.1,0,0,1,15.15-12.12c19.39-9.45,42.38-8.74,61.08-6.68,31.66,3.47,54.81,20.45,50.88,41.67-1.5,8.13-6.51,16.26-13.66,23.47-5.26,5.3-12.5,9.94-21.17,13.51-9.82,16.56-36.09,28.7-67.35,28.7a117.51,117.51,0,0,1-13.62-.79c-1-.11-2-.22-2.95-.31-4.4,2.72-9.21,5.83-14,9.21-17.46,12.18-43.36,19.73-71.67,19.73-28.51,0-54.54-7.64-72-20-4.85-3.43-9.69-6.61-14.12-9.38l-3.41.42a116.81,116.81,0,0,1-15.72,1.09c-29.65,0-54-10.6-63.92-23.8a90.88,90.88,0,0,1-13.09-24C291.51,1105.08,276.81,1091,276.81,1075.47Z" transform="translate(-24.21 -25.92)"/><path class="cls-30" d="M278.64,1075.17c0-14.81,17.16-30.45,43.18-35.92,16.1-3.38,32.15-3.49,45.63.1a36.12,36.12,0,0,1,10.72,4.74c5.37,3.6,12.18,7.75,19.79,10.23,2.17.71,4.3,1.5,6.42,2.39a76.16,76.16,0,0,0,8.47,2.94c2.59.74,5.11,1.26,7.48,1.74,14.2,2.89,25.83,9.73,32.51,18.13,3.23.71,6.34,1.56,9.36,2.51a139.08,139.08,0,0,1,37.64-3.22c2.81.15,5.7.2,8.61.07,3.46-.16,7-.46,10.41-1,1.69-.25,3.39-.48,5.1-.67a116.3,116.3,0,0,0,15.51-3.19c8.8-2.13,19.81-2.24,31.55-1.19,2.09-.82,4.25-1.58,6.5-2.26a46.24,46.24,0,0,1,15.84-10.87c21.18-8.58,44-5.24,60.54-2.49,27.55,4.6,46.69,19.92,41.46,39.15-2,7.36-7,15-13.52,21.95-4.83,5.1-11.62,9.64-19.87,13.19-9.85,15.3-34.79,26.55-64.53,26.55a117.76,117.76,0,0,1-13.62-.8c-1-.12-2-.22-3-.3a112.77,112.77,0,0,0-14.21,8.83c-17.11,12.42-43.13,20.11-71.48,20.11-28.56,0-54.71-7.79-71.82-20.35a114,114,0,0,0-14.3-9c-1.13.11-2.27.24-3.41.4a114.28,114.28,0,0,1-15.72,1.11c-30.2,0-54.41-11.18-63-24.14a204,204,0,0,1-13.32-23.53C292.81,1103.14,278.64,1089.67,278.64,1075.17Z" transform="translate(-24.21 -25.92)"/><path class="cls-31" d="M280.47,1074.86c0-14.22,17.94-30,45.12-34.62,17-2.92,33.31-2.14,46.11,2.17a29,29,0,0,1,10.28,5.77,54,54,0,0,0,19.1,11.67c2.19.72,4.34,1.53,6.5,2.45a54,54,0,0,0,8.62,2.84,61,61,0,0,0,7.66,1.23c14.2,1.52,26.6,7,34.83,14.21,3.23.61,6.37,1.36,9.42,2.21a137.69,137.69,0,0,1,37.64-1.57,62.64,62.64,0,0,0,8.59.3,70.47,70.47,0,0,0,10.24-1.11c1.67-.31,3.36-.6,5.06-.85,5.71-.81,10.74-2.75,15.08-4.36,7.93-3,18.92-4,31.09-3.7q3.13-1.18,6.51-2.17a49,49,0,0,1,16.53-9.61c23-7.63,45.65-1.77,60,1.7,23.39,5.67,38.59,19.39,32,36.62-2.49,6.6-7.37,13.71-13.36,20.44-4.4,4.91-10.75,9.34-18.57,12.88-9.88,14-33.51,24.39-61.73,24.39a113.42,113.42,0,0,1-13.61-.82c-1-.12-2-.21-3-.28a69.77,69.77,0,0,0-14.39,8.45c-16.77,12.65-42.92,20.49-71.31,20.49-28.59,0-54.87-7.94-71.63-20.73a70.07,70.07,0,0,0-14.49-8.62c-1.13.09-2.27.22-3.41.38a113.18,113.18,0,0,1-15.72,1.13c-30.73,0-54.79-11.78-62.1-24.49-4.61-8-9.42-16.6-13.56-23.07C294.11,1101.21,280.47,1088.37,280.47,1074.86Z" transform="translate(-24.21 -25.92)"/><path class="cls-32" d="M282.3,1074.56c0-13.64,18.72-29.47,47.06-33.34,17.9-2.44,34.45-.72,46.6,4.25a24.49,24.49,0,0,1,9.83,6.8,40.45,40.45,0,0,0,18.41,13.11c2.21.73,4.38,1.57,6.57,2.52a42.36,42.36,0,0,0,8.79,2.72,62.84,62.84,0,0,0,7.84.73c14.15,1.07,27.36,4.3,37.13,10.3,3.25.51,6.4,1.15,9.48,1.89a136,136,0,0,1,37.65.09,47.68,47.68,0,0,0,8.57.53,53.45,53.45,0,0,0,10.07-1.26c1.65-.37,3.33-.73,5-1a50.24,50.24,0,0,0,14.65-5.52c7-3.72,18-5.73,30.61-6.2,2.09-.76,4.28-1.46,6.54-2.09a53,53,0,0,1,17.22-8.36c24.88-6.57,47.17,1.67,59.45,5.91,19.16,6.61,30.49,18.85,22.63,34.08-3,5.83-7.81,12.44-13.22,18.93-4,4.71-9.88,9.05-17.27,12.56-9.9,12.78-32.21,22.24-58.91,22.24a111.63,111.63,0,0,1-13.61-.84c-1-.12-2-.21-3-.27a51.18,51.18,0,0,0-14.56,8.08c-16.42,12.88-42.7,20.87-71.13,20.87-28.64,0-55-8.09-71.45-21.12a51.09,51.09,0,0,0-14.67-8.23c-1.13.08-2.27.2-3.41.36a111,111,0,0,1-15.72,1.15c-31.28,0-55.16-12.42-61.2-24.84-4-8.19-8.89-16.71-13.79-22.6C295.41,1099.27,282.3,1087.08,282.3,1074.56Z" transform="translate(-24.21 -25.92)"/><path class="cls-33" d="M284.13,1074.25c0-13,19.51-29,49-32,18.81-2,35.58.74,47.09,6.32,4.74,2.29,7.94,5.26,9.39,7.83a32.82,32.82,0,0,0,17.73,14.55c2.22.75,4.41,1.6,6.64,2.59a34.1,34.1,0,0,0,17,2.84,85.64,85.64,0,0,1,39.43,6.38q4.89.62,9.55,1.58a133.31,133.31,0,0,1,37.65,1.75,39.12,39.12,0,0,0,8.54.75,43.07,43.07,0,0,0,9.91-1.4c1.64-.44,3.3-.86,5-1.23a38.66,38.66,0,0,0,14.22-6.69c6.21-4.42,17.13-7.47,30.14-8.7q3.15-1.11,6.56-2a58.38,58.38,0,0,1,17.92-7.1c26.75-5.43,48.58,5,58.91,10.1,14.85,7.35,22.37,18.31,13.21,31.56-3.5,5.06-8.25,11.16-13.08,17.41-3.53,4.52-9,8.75-16,12.24-9.93,11.53-30.92,20.09-56.09,20.09a109.78,109.78,0,0,1-13.61-.85c-1-.12-2-.21-3-.26a40.21,40.21,0,0,0-14.75,7.71c-16.07,13.11-42.48,21.24-70.94,21.24-28.69,0-55.22-8.23-71.26-21.5a40.13,40.13,0,0,0-14.86-7.85c-1.14.06-2.28.17-3.42.34a109.93,109.93,0,0,1-15.71,1.17c-31.82,0-55.48-13.08-60.29-25.18-3.34-8.39-8.38-16.82-14-22.15C296.71,1097.33,284.13,1085.79,284.13,1074.25Z" transform="translate(-24.21 -25.92)"/><path class="cls-34" d="M286,1073.94c0-12.45,20.28-28.44,50.92-30.74,19.71-1.48,36.67,2.23,47.58,8.38,4.78,2.7,7.83,6,8.94,8.87a28.3,28.3,0,0,0,17,16c2.24.76,4.45,1.64,6.72,2.66a30.55,30.55,0,0,0,9.1,2.49,29.91,29.91,0,0,0,8.21-.27,97.65,97.65,0,0,1,41.74,2.46c3.26.31,6.46.74,9.6,1.27a131.21,131.21,0,0,1,37.66,3.41,32.83,32.83,0,0,0,8.52,1,35.45,35.45,0,0,0,9.74-1.55c1.62-.51,3.27-1,5-1.42a31.63,31.63,0,0,0,13.79-7.85c5.43-5.08,16.24-9.21,29.67-11.21,2.11-.7,4.31-1.35,6.59-1.92a65.39,65.39,0,0,1,18.61-5.84c28.61-4.2,51.39,6.51,58.36,14.29,11.92,5.36,14.27,17.78,3.79,29a160.71,160.71,0,0,0-12.93,15.9c-3.1,4.32-8.12,8.46-14.67,11.93-9.95,10.26-29.62,17.92-53.28,17.92a108.36,108.36,0,0,1-13.61-.86c-1-.12-2-.2-3-.24a33.2,33.2,0,0,0-14.93,7.33c-15.73,13.34-42.26,21.62-70.77,21.62-28.73,0-55.38-8.38-71.07-21.88a33.15,33.15,0,0,0-15.05-7.48,33,33,0,0,0-3.41.33,107.78,107.78,0,0,1-15.72,1.18c-32.36,0-55.74-13.75-59.38-25.52-2.65-8.6-7.85-16.93-14.26-21.69C298,1095.4,286,1084.5,286,1073.94Z" transform="translate(-24.21 -25.92)"/><path class="cls-35" d="M287.8,1073.64c0-11.87,21.07-27.93,52.86-29.46,20.61-1,37.73,3.76,48.06,10.46,4.81,3.12,7.72,6.79,8.5,9.9A25.38,25.38,0,0,0,413.57,1082a73,73,0,0,1,6.8,2.72,26.81,26.81,0,0,0,9.26,2.39,26,26,0,0,0,8.38-.78,108.62,108.62,0,0,1,44.05-1.45q4.92.32,9.67,1a128.28,128.28,0,0,1,37.66,5.06,28.37,28.37,0,0,0,8.5,1.21,29.75,29.75,0,0,0,9.56-1.7c1.61-.57,3.25-1.11,4.93-1.6a27.17,27.17,0,0,0,13.36-9c4.69-5.72,15.34-11,29.19-13.71,2.12-.68,4.32-1.29,6.62-1.83a74.53,74.53,0,0,1,19.3-4.59c30.47-2.88,53.17,9.74,57.82,18.49,7.94,6,6.16,17.24-5.63,26.49A59.8,59.8,0,0,0,660.25,1119c-2.66,4.14-7.25,8.17-13.37,11.62-10,9-28.33,15.77-50.46,15.77a108.49,108.49,0,0,1-13.61-.87,26.81,26.81,0,0,0-3-.23,28.48,28.48,0,0,0-15.1,7c-15.39,13.57-42,22-70.59,22-28.78,0-55.55-8.53-70.89-22.27a28.53,28.53,0,0,0-15.23-7.09,30.6,30.6,0,0,0-3.42.31,106.83,106.83,0,0,1-15.71,1.2c-32.9,0-56-14.43-58.47-25.86-1.93-8.82-7.33-17-14.5-21.23C299.31,1093.46,287.8,1083.21,287.8,1073.64Z" transform="translate(-24.21 -25.92)"/><path class="cls-36" d="M289.63,1073.33c0-11.28,21.85-27.36,54.8-28.16,21.51-.47,38.74,5.3,48.54,12.53,4.83,3.56,7.61,7.53,8.06,10.92a23.56,23.56,0,0,0,15.66,18.88,73.37,73.37,0,0,1,6.87,2.79,24.3,24.3,0,0,0,9.43,2.27,23.89,23.89,0,0,0,8.56-1.27c14.25-4.86,30.39-6.57,46.36-5.37,3.28.1,6.53.32,9.72.64a125.4,125.4,0,0,1,37.67,6.73,25.29,25.29,0,0,0,8.47,1.43,25.59,25.59,0,0,0,9.4-1.85c1.59-.64,3.21-1.23,4.89-1.79A24.23,24.23,0,0,0,571,1080.9c4-6.38,14.45-12.69,28.72-16.21,2.12-.65,4.34-1.24,6.64-1.75a86.72,86.72,0,0,1,20-3.33c32.31-1.47,53.52,13.42,57.28,22.68,2.92,7.21-2,16.71-15,24a33.84,33.84,0,0,0-12.65,12.86c-2.23,3.94-6.37,7.87-12.06,11.3-10,7.75-27,13.62-47.65,13.62a105,105,0,0,1-13.61-.89,24.69,24.69,0,0,0-3-.21,25,25,0,0,0-15.29,6.57c-15,13.8-41.82,22.37-70.4,22.37-28.83,0-55.72-8.67-70.71-22.64a25,25,0,0,0-15.41-6.71,26.58,26.58,0,0,0-3.43.28,103.43,103.43,0,0,1-15.7,1.23c-33.45,0-56.13-15.09-57.57-26.21-1.16-9-6.8-17.16-14.73-20.77C300.61,1091.53,289.63,1081.92,289.63,1073.33Z" transform="translate(-24.21 -25.92)"/><path class="cls-37" d="M493.75,1169.54c-28.86,0-55.89-8.82-70.52-23a22.39,22.39,0,0,0-15.6-6.33,23.27,23.27,0,0,0-3.42.26,102.84,102.84,0,0,1-15.71,1.25c-34,0-56.26-15.73-56.65-26.56a22.41,22.41,0,0,0-15-20.31c-15-5.24-25.42-14.2-25.42-21.8,0-10.7,22.63-26.87,56.74-26.87s56.25,15.72,56.64,26.55a22.41,22.41,0,0,0,15,20.32,69,69,0,0,1,6.95,2.86,22.36,22.36,0,0,0,18.33.38c14.32-6.07,31.15-9.28,48.66-9.28,17.07,0,33.48,3,47.46,8.71a22.37,22.37,0,0,0,17.68-.33c1.57-.71,3.18-1.37,4.85-2a22.37,22.37,0,0,0,12.5-11.35c5.22-10.88,26.48-22.45,55.6-22.45,34.11,0,56.73,16.18,56.73,26.88,0,7.35-10.05,16.17-24.45,21.43a22.42,22.42,0,0,0-12.51,11.35c-5.22,10.88-26.48,22.45-55.6,22.45a105.06,105.06,0,0,1-13.6-.9,21.13,21.13,0,0,0-3-.2,22.38,22.38,0,0,0-15.47,6.2C549.28,1160.83,522.37,1169.54,493.75,1169.54Z" transform="translate(-24.21 -25.92)"/><path class="cls-38" d="M655.66,1013.58a19.11,19.11,0,0,0,2.41-9.11c0-15.87-20.66-28.74-46.15-28.74-.81,0-1.59,0-2.38.08a23.55,23.55,0,0,0,.76-5.61c0-20.32-26.46-36.8-59.1-36.8a89.71,89.71,0,0,0-24.75,3.42c-8.31-5-19.62-8.11-32.1-8.11-16.9,0-31.64,5.67-39.68,14.11-10.4-5.37-23.75-8.6-38.31-8.6-23.44,0-43.69,8.38-53.59,20.57A67.33,67.33,0,0,0,337.22,950c-25.49,0-46.15,12.87-46.15,28.74a18.7,18.7,0,0,0,1.51,7.18A91,91,0,0,0,262.51,981c-33.77,0-61.14,17-61.14,38.07,0,6.84,2.94,13.25,8,18.8-12.16,7.62-19.68,18.12-19.68,29.72,0,21.53,25.92,39.26,59.38,41.85.36,21.65,28.64,39.14,63.5,39.14,23.57,0,44.09-8,55.06-19.88,14.11,14.34,39.44,23.94,68.43,23.94,25,0,47.37-7.13,62.09-18.3,13.71,6.78,31,10.86,49.88,10.86,42.19,0,76.71-20.28,80-46l.62,0c39.42,0,71.38-19.9,71.38-44.44C700,1036.12,681.68,1020.22,655.66,1013.58ZM486,1063.48c-13.71-6.78-31-10.86-49.88-10.86-33.68,0-62.48,12.93-74.39,31.24-9.14-6.91-22-11.86-36.62-13.68.08-.87.21-1.74.21-2.63,0-9.65-5.26-18.52-14-25.63,7.74-6.37,12.38-14.28,12.38-22.89a25.83,25.83,0,0,0-4.2-13.79,70.54,70.54,0,0,0,17.77,2.22c14.2,0,26.88-4,35.35-10.28,11,7.28,26.5,11.86,43.79,11.86,26.76,0,49.42-10.91,57.18-26a69.29,69.29,0,0,0,20.81,3.11c1.22,0,2.41,0,3.6-.11,9.53,12.36,29.76,20.92,53.25,20.92a92.9,92.9,0,0,0,14.67-1.19c.5,6.86,4.85,13.07,11.75,17.85-9.36,6-16.06,13.54-18.88,22-3.5-.29-7-.5-10.69-.5C523,1045.17,500.68,1052.31,486,1063.48Z" transform="translate(-24.21 -25.92)"/><path class="cls-39" d="M431.51,1138.51c-24.21,0-46.76-7.63-58.85-19.92a13.45,13.45,0,0,0-9.58-4h-.21a13.47,13.47,0,0,0-9.66,4.32c-8.73,9.45-26.48,15.56-45.19,15.56-29.25,0-49.87-13.67-50.07-25.94a13.43,13.43,0,0,0-12.4-13.16c-29-2.24-47-16.52-47-28.46,0-6.32,4.87-13,13.38-18.34a13.44,13.44,0,0,0,2.77-20.45c-3-3.25-4.49-6.53-4.49-9.73,0-11.63,20.4-24.63,47.7-24.63a78,78,0,0,1,25.6,4.18,13.43,13.43,0,0,0,16.88-17.81,5.64,5.64,0,0,1-.49-2.05c0-6.09,13.05-15.29,32.72-15.29A53.78,53.78,0,0,1,353,966.54a13.3,13.3,0,0,0,5.15,1,13.45,13.45,0,0,0,10.43-5c7.7-9.48,24.64-15.61,43.17-15.61,11.85,0,23.27,2.53,32.15,7.11a13.45,13.45,0,0,0,15.89-2.68c4.37-4.58,14.83-9.94,29.95-9.94,9.48,0,18.65,2.25,25.16,6.18a13.36,13.36,0,0,0,10.66,1.41,75.92,75.92,0,0,1,21-2.89c26.13,0,45.66,12.33,45.66,23.35a10.48,10.48,0,0,1-.37,2.41A13.44,13.44,0,0,0,605,988.59c.15,0,2-.07,2.37-.07,19.67,0,32.72,9.2,32.72,15.3a5.83,5.83,0,0,1-.81,2.75,13.45,13.45,0,0,0,8.52,19.38c20.16,5.14,34.24,16.7,34.24,28.1,0,14.67-23.8,31-58,31l-.62,0a13.44,13.44,0,0,0-13.33,11.75c-2.08,16.48-28.14,34.28-66.63,34.28-16,0-31.59-3.37-43.92-9.47a13.45,13.45,0,0,0-14.08,1.34C472.44,1132.84,452.77,1138.51,431.51,1138.51ZM314.88,991.16a13.43,13.43,0,0,0-11.39,20.56,12.41,12.41,0,0,1,2.15,6.65c0,5.26-4.07,9.72-7.48,12.53a13.44,13.44,0,0,0,.07,20.8c4.12,3.35,9,8.71,9,15.19l-.15,1.31a13.44,13.44,0,0,0,11.72,14.67c12,1.48,22.71,5.41,30.17,11.05a13.42,13.42,0,0,0,8.1,2.72,13,13,0,0,0,2.32-.2,13.44,13.44,0,0,0,8.95-5.91c8.14-12.5,30.81-25.13,63.13-25.13,16,0,31.58,3.37,43.92,9.47a13.45,13.45,0,0,0,14.08-1.34c13-9.9,32.71-15.58,54-15.58,2.82,0,5.87.15,9.59.46.37,0,.74,0,1.11,0a13.45,13.45,0,0,0,12.75-9.2c1.74-5.25,6.47-10.55,13.34-14.92a13.43,13.43,0,0,0,.42-22.37c-3.63-2.52-5.81-5.36-6-7.8a13.45,13.45,0,0,0-13.4-12.44,13.76,13.76,0,0,0-2.12.16,79.89,79.89,0,0,1-12.55,1c-21.08,0-36.59-7.87-42.6-15.68A13.46,13.46,0,0,0,493.38,972h-.64c-1,0-2,.1-3,.1A55.76,55.76,0,0,1,473,969.61a13.45,13.45,0,0,0-16,6.65c-4.79,9.29-21.87,18.69-45.24,18.69-13.91,0-27.17-3.51-36.36-9.61a13.4,13.4,0,0,0-15.43.4c-6.45,4.78-16.68,7.63-27.35,7.63a57.36,57.36,0,0,1-14.39-1.78A13.45,13.45,0,0,0,314.88,991.16Z" transform="translate(-24.21 -25.92)"/><path class="cls-40" d="M430.43,1121.23c-21.56,0-42.15-6.77-52.46-17.25a22.37,22.37,0,0,0-16-6.69h-.35a22.38,22.38,0,0,0-16.09,7.19c-5.84,6.31-20,12.68-38.62,12.68-26.52,0-41-12.15-41.11-17.12a22.4,22.4,0,0,0-20.67-22c-25-1.94-38.7-13.91-38.7-19.52,0-3,3.6-7.25,9.18-10.75a22.4,22.4,0,0,0,4.62-34.09c-1.58-1.73-2.14-3.06-2.14-3.68,0-4,13.32-15.68,38.74-15.68A68.93,68.93,0,0,1,279.49,998a22.31,22.31,0,0,0,7.44,1.28,23.17,23.17,0,0,0,4.63-.48,22.32,22.32,0,0,0,3.26,9.29,4.5,4.5,0,0,1,.79,1.92c0,1-1.33,3.22-4.23,5.62a22.4,22.4,0,0,0,.12,34.66c3.4,2.75,5.5,5.66,5.72,7.86l-.09.79a22.4,22.4,0,0,0,19.53,24.45c10.31,1.28,19.73,4.67,25.86,9.31a22.44,22.44,0,0,0,13.52,4.54,22.75,22.75,0,0,0,3.85-.33,22.45,22.45,0,0,0,14.92-9.85C381.4,1077,401.63,1066,430.43,1066c14.63,0,28.82,3,39.95,8.53a22.34,22.34,0,0,0,23.46-2.23c11.35-8.61,29.5-13.75,48.56-13.75,2.62,0,5.43.13,8.83.41.63.06,1.26.08,1.88.08a22.39,22.39,0,0,0,21.24-15.34c1.08-3.25,4.59-7,9.65-10.18a22.39,22.39,0,0,0,.72-37.29,11.38,11.38,0,0,1-2.25-2,22.4,22.4,0,0,0-25.79-19.59,70.87,70.87,0,0,1-11.13.91c-17.94,0-31-6.32-35.51-12.19a22.38,22.38,0,0,0-17.73-8.73c-.39,0-.77,0-1.15,0-.82,0-1.63.08-2.46.08a47.53,47.53,0,0,1-14.07-2.07,22.49,22.49,0,0,0-6.74-1,22.22,22.22,0,0,0-7,1.12,22.69,22.69,0,0,0,4.33-3.53c3.28-3.45,12-7.16,23.46-7.16,7.9,0,15.38,1.78,20.54,4.89A22.46,22.46,0,0,0,527,949.36a67.3,67.3,0,0,1,18.55-2.54c23.69,0,36.7,10.82,36.7,14.4v0a2.1,2.1,0,0,0-.11.3,22.4,22.4,0,0,0,21.75,27.74l2.38-.07c12.13,0,20.3,4.12,23.12,6.72a22.39,22.39,0,0,0,15.09,30.43c17,4.33,27.49,13.46,27.49,19.43,0,7.74-18.46,21.94-48.66,22h-.94a22.39,22.39,0,0,0-22.22,19.59c-1.39,11-24,26.43-57.75,26.43-14.64,0-28.82-3-39.94-8.53a22.43,22.43,0,0,0-23.48,2.23C467.64,1116.09,449.49,1121.23,430.43,1121.23ZM410.71,977.67c-12.19,0-23.64-3-31.4-8.12a22.38,22.38,0,0,0-12.13-3.74,22.28,22.28,0,0,0,7.31-5.88c4.82-5.92,18.2-12.29,36.22-12.29,10.46,0,20.41,2.17,28,6.1A22.36,22.36,0,0,0,456,955.12a22.28,22.28,0,0,0-8,8.71C445.12,969.41,431.27,977.67,410.71,977.67Zm-79.14-1.59a48,48,0,0,1-12.12-1.49,22.74,22.74,0,0,0-5.65-.72,22.29,22.29,0,0,0-4.62.48,22.52,22.52,0,0,0-.87-4.1c2.68-2.59,10.92-6.85,23.26-6.85a44.19,44.19,0,0,1,17,3.1,22.3,22.3,0,0,0,8.32,1.7,21.93,21.93,0,0,0-3.28,2C349.76,973.05,342,976.08,331.57,976.08Z" transform="translate(-24.21 -25.92)"/><path class="cls-41" d="M430.43,1107.79c-17.58,0-35.22-5.44-42.88-13.23-.3-.31-.61-.61-.92-.9,4.13-5.1,18.93-14.19,43.8-14.19,12.61,0,24.68,2.54,34,7.15a35.85,35.85,0,0,0,37.54-3.57c9-6.8,24.46-11,40.44-11,2.25,0,4.7.12,7.71.37,1,.08,2,.13,3,.13a35.75,35.75,0,0,0,33.82-24.06,17.27,17.27,0,0,1,4.29-3.57,35.85,35.85,0,0,0,14.49-42.28l1,0a32.67,32.67,0,0,1,7.51.85,35.78,35.78,0,0,0,26.94,35.89,45.8,45.8,0,0,1,14.82,6.41c-5.16,3.64-16.13,8.5-32.46,8.61-.39,0-.77,0-1.15,0a35.89,35.89,0,0,0-35.49,30.87c-2.2,4.49-18.08,15.16-44.48,15.16-12.61,0-24.68-2.54-34-7.15a35.87,35.87,0,0,0-37.56,3.58C461.91,1103.57,446.42,1107.79,430.43,1107.79Zm-123.49-4.07c-15.77,0-24.85-5-27.92-7.51a35.67,35.67,0,0,0-32.82-31.52c-10.7-.82-18-3.69-22.35-6.19a35.85,35.85,0,0,0,11.52-46.5c4.4-2.07,11.48-4.19,21.49-4.19a55.33,55.33,0,0,1,18.16,2.9c.66.23,1.33.45,2,.64a35.86,35.86,0,0,0,6,49.4l.56.48A35.61,35.61,0,0,0,315,1096.76a54.1,54.1,0,0,1,13,3.23A57,57,0,0,1,306.94,1103.72ZM410.71,964.23a57.25,57.25,0,0,1-13.54-1.58,56.13,56.13,0,0,1,13.54-1.58,57.36,57.36,0,0,1,13.5,1.57A56.05,56.05,0,0,1,410.71,964.23Zm134.84-2.05a57.31,57.31,0,0,1-10.52-.94,55.7,55.7,0,0,1,10.52-1,56.5,56.5,0,0,1,10.68,1c-.56.06-1.11.13-1.67.22A57.39,57.39,0,0,1,545.55,962.18Z" transform="translate(-24.21 -25.92)"/></g><path class="cls-42" d="M394.89,713.77a30.67,30.67,0,0,0-6,1.72C345.56,732.79,346.28,846,346.28,846H333.53s-4-48.58-21.51-117.89c-15.76-62.36,48.88-118.25,62-128.85,1.48-1.18,2.3-1.81,2.3-1.81C441.43,621.37,394.89,713.77,394.89,713.77Z" transform="translate(-24.21 -25.92)"/><path class="cls-43" d="M381.06,599.41c-1.5-.69-3.05-1.35-4.69-1.95,0,0-.81.62-2.3,1.8-13.13,10.6-77.77,66.49-62,128.85C329.56,797.43,333.53,846,333.53,846h7.17s-4-48.58-21.51-117.89C303.5,666,367.51,610.34,381.06,599.41Z" transform="translate(-24.21 -25.92)"/><path class="cls-44" d="M609.7,728.11C592.16,797.43,588.21,846,588.21,846H575.44s.8-118.31-45.55-131.52a25.1,25.1,0,0,0-3.06-.71s-46.57-92.41,18.56-116.32c0,0,.66.49,1.85,1.45C559.31,608.55,625.63,665,609.7,728.11Z" transform="translate(-24.21 -25.92)"/><path class="cls-45" d="M394.89,713.77a30.67,30.67,0,0,0-6,1.72A786.47,786.47,0,0,1,374,599.26c1.48-1.18,2.3-1.8,2.3-1.8C441.43,621.37,394.89,713.77,394.89,713.77Z" transform="translate(-24.21 -25.92)"/><path class="cls-45" d="M547.26,598.9a722.09,722.09,0,0,1-17.35,115.62,26.17,26.17,0,0,0-3.06-.72s-46.56-92.4,18.57-116.31C545.39,597.46,546.05,598,547.26,598.9Z" transform="translate(-24.21 -25.92)"/><path class="cls-46" d="M523.42,731.29q-6.74,26.61-15.8,54.6c-9.07,28-28.68,29.87-98,0,0,0-6.92-19.51-14.53-52.68-16.76-72.93-36.85-211.9,6-354.65A531.54,531.54,0,0,1,455,256.15s36.58,42,63.43,122.39S562.4,577.71,523.42,731.29Z" transform="translate(-24.21 -25.92)"/><circle class="cls-47" cx="436.64" cy="465.96" r="57.51"/><path class="cls-46" d="M501.64,491.92A40.79,40.79,0,0,1,435,523.46a41.2,41.2,0,0,1-7.64-8.29,39,39,0,0,1-2.63-4.33,40.63,40.63,0,0,1-4.65-18.92v-1a40.84,40.84,0,0,1,29.7-38.31,42.51,42.51,0,0,1,9.83-1.49h1.22a40.77,40.77,0,0,1,40.81,40.76Z" transform="translate(-24.21 -25.92)"/><path class="cls-48" d="M518.46,378.54c-65.26,31.24-117.4,0-117.4,0a531.34,531.34,0,0,1,54-122.39S491.61,298.15,518.46,378.54Z" transform="translate(-24.21 -25.92)"/><path class="cls-49" d="M523.42,731.29q-4.57,18-10.19,36.65-2.67,8.89-5.62,17.92c-3,9-28.68,29.88-98,0,0,0-2.24-6.33-5.62-17.92-2.52-8.75-5.66-20.48-8.93-34.75,0,0,25.79,11,62.39,11A171.74,171.74,0,0,0,523.42,731.29Z" transform="translate(-24.21 -25.92)"/><path class="cls-43" d="M425.16,785.87s-6.92-19.52-14.53-52.68c-16.76-72.93-36.86-211.9,6-354.65a533.24,533.24,0,0,1,47.25-110.87c-5.43-7.62-8.83-11.51-8.83-11.51a531,531,0,0,0-53.95,122.38c-42.82,142.75-22.73,281.72-6,354.65,7.61,33.16,14.53,52.68,14.53,52.68,27.37,11.8,48.4,14.27,63.83,13C460.27,797.82,444.26,794.1,425.16,785.87Z" transform="translate(-24.21 -25.92)"/><path id="Musical_note" data-name="Musical note" class="cls-50" d="M468.43,52.05l14.21,35.12a9.81,9.81,0,0,0-8.74,13.6,9.92,9.92,0,0,0,18.37-7.47L479.54,61.82l28.31-21.16h0l12.68,31.18A9.89,9.89,0,1,0,530.16,78h0L509,25.92Z" transform="translate(-24.21 -25.92)"/><path id="Musical_note-2" data-name="Musical note" class="cls-50" d="M749.32,293.75a13.76,13.76,0,0,1,5.77-.1,29.71,29.71,0,0,1,7.3,2.6c3.13,1.48,6.21,3.16,9.57,4s7.12.78,10-1.08a13.49,13.49,0,0,1-5.64-2.12c-4.05-2.69-6.55-8.13-10-11.6-5.08-5.15-11-6.22-18.73-6.06-1.42,6.19-3,12.35-4.49,18.52q-1.75,7.26-3.52,14.53c-.12.46-1.77,6.55-1.77,6.55a13.1,13.1,0,0,0-5.1-2.58,10.69,10.69,0,1,0,7.89,12.9Z" transform="translate(-24.21 -25.92)"/><g id="Note"><path class="cls-51" d="M236.51,119.37,75.12,206.43l-5,181.06A32.55,32.55,0,0,0,59,391.22C40.36,401.29,24.8,426.6,24.23,447.75,23.92,459.1,28,466.9,34.72,470.18l-.08,0,11.52,6,0-.05c5.88,3.39,14,3.05,23.12-1.88,18.61-10.08,34.17-35.39,34.75-56.53l4.57-165.91,103.7-55.93L209.06,312.6a32.42,32.42,0,0,0-11.19,3.74c-18.62,10.07-34.18,35.38-34.75,56.53-.31,11.33,3.77,19.12,10.46,22.41h-.09l11.23,5.79h0c5.9,3.57,14.16,3.28,23.42-1.73,18.6-10.07,34.15-35.36,34.74-56.5l0,0,6-217Z" transform="translate(-24.21 -25.92)"/><path class="cls-52" d="M236.51,119.37,75.12,206.43l-5,181.06A32.55,32.55,0,0,0,59,391.22C40.36,401.29,24.8,426.6,24.23,447.75,23.92,459.1,28,466.9,34.72,470.18l-.08,0,11.52,6,0-.05c5.88,3.39,14,3.05,23.12-1.88,18.61-10.08,34.17-35.39,34.75-56.53l4.57-165.91,103.7-55.93L209.06,312.6a32.42,32.42,0,0,0-11.19,3.74c-18.62,10.07-34.18,35.38-34.75,56.53-.31,11.33,3.77,19.12,10.46,22.41h-.09l11.23,5.79h0c5.9,3.57,14.16,3.28,23.42-1.73,18.6-10.07,34.15-35.36,34.74-56.5l0,0,6-217Z" transform="translate(-24.21 -25.92)"/><path class="cls-51" d="M100.9,434.15,82.52,393.91l-12.36-6.42A32.55,32.55,0,0,0,59,391.22c-7.65,4.14-14.76,10.87-20.55,18.8L96,445.43A75.74,75.74,0,0,0,100.9,434.15Z" transform="translate(-24.21 -25.92)"/><path class="cls-53" d="M100.9,434.15,82.52,393.91l-12.36-6.42A32.55,32.55,0,0,0,59,391.22c-7.65,4.14-14.76,10.87-20.55,18.8L96,445.43A75.74,75.74,0,0,0,100.9,434.15Z" transform="translate(-24.21 -25.92)"/><path class="cls-51" d="M239.79,359.26,221.42,319l-12.37-6.42a32.69,32.69,0,0,0-11.18,3.73c-7.64,4.14-14.75,10.87-20.54,18.8l57.6,35.41A76.74,76.74,0,0,0,239.79,359.26Z" transform="translate(-24.21 -25.92)"/><path class="cls-53" d="M239.79,359.26,221.42,319l-12.37-6.42a32.69,32.69,0,0,0-11.18,3.73c-7.64,4.14-14.75,10.87-20.54,18.8l57.6,35.41A76.74,76.74,0,0,0,239.79,359.26Z" transform="translate(-24.21 -25.92)"/><polygon class="cls-54" points="224.67 99.87 212.3 93.45 50.91 180.5 63.28 186.92 224.67 99.87"/><path class="cls-50" d="M87.49,212.84l-5,181.07a32.57,32.57,0,0,0-11.17,3.73C52.73,407.71,37.17,433,36.6,454.17s14,30.13,32.65,20.06S103.42,438.84,104,417.7l4.57-165.91L225,189h.07l-.05,0-3.59,130a32.73,32.73,0,0,0-11.19,3.73c-18.61,10.07-34.17,35.38-34.75,56.54s14.05,30.13,32.66,20,34.15-35.36,34.74-56.5l0,0,6-217Z" transform="translate(-24.21 -25.92)"/></g></svg>